<?xml version="1.0" standalone="no"?>
<!DOCTYPE svg PUBLIC "-//W3C//DTD SVG 20010904//EN"
 "http://www.w3.org/TR/2001/REC-SVG-20010904/DTD/svg10.dtd">
<svg version="1.0" xmlns="http://www.w3.org/2000/svg"
 width="770.000000pt" height="2489.000000pt" viewBox="0 0 770.000000 2489.000000"
 preserveAspectRatio="xMidYMid meet">

<g transform="translate(0.000000,2489.000000) scale(0.100000,-0.100000)"
fill="#000000" stroke="none">
<path d="M5825 22621 c-3 -16 -21 -46 -39 -67 -18 -22 -41 -60 -51 -87 -23
-61 -72 -110 -103 -104 -15 3 -21 0 -18 -7 2 -6 27 -61 55 -123 40 -88 53
-128 60 -195 10 -91 0 -216 -19 -228 -6 -4 -10 -13 -9 -21 5 -27 -12 -60 -29
-56 -10 2 -36 -7 -59 -21 -37 -20 -47 -22 -76 -13 -44 15 -297 203 -297 222 0
10 -112 117 -150 143 -41 28 -38 70 11 162 21 39 53 113 70 165 17 52 36 99
41 106 5 7 5 14 -1 17 -15 9 -2 37 28 64 14 13 19 22 11 19 -8 -3 -39 -14 -67
-23 -58 -19 -54 -9 -58 -129 -3 -75 -43 -166 -112 -250 -79 -97 -89 -100 -346
-98 -201 1 -218 0 -212 -15 4 -9 9 -38 11 -65 2 -26 8 -56 13 -66 6 -10 15
-58 20 -105 8 -67 7 -93 -3 -118 -8 -18 -22 -64 -31 -103 -9 -38 -31 -95 -49
-125 -18 -30 -38 -70 -46 -87 -7 -18 -16 -33 -20 -33 -10 0 -84 -96 -119 -152
-12 -21 -26 -38 -29 -38 -4 0 -29 -21 -56 -46 -82 -77 -139 -103 -152 -69 -8
19 -33 20 -40 1 -6 -17 -53 -7 -279 58 -282 82 -326 98 -336 125 -5 13 -18 34
-29 48 -13 17 -17 34 -14 52 3 15 -2 45 -11 67 -29 69 -39 136 -37 263 1 96 5
127 17 141 17 18 21 55 5 45 -5 -3 -10 3 -10 15 0 29 48 110 66 110 18 0 46
54 38 74 -4 11 4 20 27 31 19 8 48 26 64 40 l30 26 -30 -7 c-73 -17 -124 -52
-165 -114 -9 -12 -32 -25 -55 -30 -22 -5 -51 -12 -65 -15 -32 -7 -111 40 -189
112 -38 35 -61 49 -70 44 -19 -12 -5 -45 31 -76 22 -19 34 -23 43 -15 10 8 15
8 20 -1 4 -6 2 -15 -5 -19 -8 -5 0 -16 26 -36 20 -16 55 -51 76 -77 30 -39 38
-57 38 -90 0 -49 -9 -87 -20 -87 -5 0 -25 30 -45 68 -43 78 -112 172 -125 172
-5 0 10 -30 32 -67 91 -150 147 -287 162 -398 4 -27 14 -75 22 -106 14 -51 14
-64 -1 -143 -21 -117 -50 -162 -188 -297 -78 -77 -171 -142 -217 -153 -18 -5
-43 4 -85 28 -33 20 -82 46 -108 58 -40 19 -47 27 -44 46 4 21 3 22 -17 9 -19
-13 -27 -12 -63 5 -46 22 -163 123 -163 142 0 6 -9 30 -20 51 -24 47 -61 168
-86 277 -23 107 -5 266 25 218 9 -13 10 -13 14 0 3 8 14 40 25 71 11 30 18 67
15 81 -6 34 12 44 42 24 24 -16 34 -10 16 10 -6 5 -11 37 -12 72 -2 53 -5 62
-21 62 -10 0 -21 6 -24 14 -8 20 -31 27 -60 20 -31 -8 -30 -27 3 -91 l28 -53
-26 -47 c-101 -182 -121 -377 -59 -576 11 -34 20 -69 20 -78 0 -9 7 -22 15
-29 19 -16 19 -30 0 -30 -16 0 -21 -18 -29 -90 -2 -25 -16 -92 -31 -150 -33
-134 -43 -338 -25 -501 14 -134 64 -338 112 -462 37 -94 38 -108 5 -223 -12
-42 -13 -78 -6 -200 11 -163 11 -156 3 -266 -4 -56 -2 -83 9 -105 10 -18 16
-65 18 -123 3 -84 1 -99 -18 -131 -38 -61 -53 -150 -53 -321 0 -92 5 -168 11
-185 28 -70 28 -94 2 -172 -24 -72 -25 -83 -18 -205 4 -84 14 -148 26 -184 10
-30 19 -79 19 -108 0 -29 5 -64 11 -78 10 -20 8 -32 -10 -69 -45 -94 -55 -270
-27 -487 11 -80 18 -165 17 -190 -1 -38 3 -50 23 -68 29 -24 42 -64 30 -89 -4
-10 -8 -27 -9 -38 -5 -69 10 -63 -142 -61 -125 1 -146 -2 -227 -27 -114 -36
-138 -49 -198 -105 l-50 -46 7 37 c11 57 -10 45 -37 -20 -20 -50 -23 -79 -26
-220 -4 -171 8 -242 46 -269 15 -11 15 -14 1 -31 -9 -10 -27 -49 -40 -88 -19
-59 -23 -87 -20 -175 1 -58 6 -121 11 -140 5 -19 16 -64 26 -100 9 -36 17
-101 18 -145 1 -72 5 -87 40 -152 21 -40 41 -74 45 -75 3 0 17 -2 31 -4 14 -2
97 -26 185 -54 88 -28 202 -62 254 -75 52 -14 97 -27 99 -30 3 -3 4 -38 3 -79
-3 -105 16 -232 44 -291 30 -63 32 -81 12 -126 -15 -34 -21 -63 -49 -229 -14
-84 -5 -157 25 -224 14 -30 22 -56 19 -58 -4 -2 -15 -28 -25 -59 -12 -40 -17
-90 -17 -175 0 -129 16 -214 52 -271 17 -29 20 -51 22 -156 1 -98 5 -128 18
-149 16 -25 16 -27 -1 -50 -33 -42 -50 -122 -52 -247 -2 -113 -1 -123 26 -175
25 -49 26 -58 15 -85 -7 -17 -17 -29 -24 -28 -6 1 -11 -11 -12 -28 0 -16 -10
-59 -22 -95 -83 -250 -105 -576 -51 -775 11 -44 25 -100 31 -125 5 -25 14 -54
19 -66 8 -15 2 -46 -26 -134 -24 -73 -39 -141 -43 -192 -5 -77 -3 -90 41 -258
6 -25 12 -47 12 -50 1 -3 9 -23 19 -45 12 -29 14 -45 7 -60 -6 -11 -12 -42
-14 -70 -2 -27 -16 -115 -31 -195 -27 -141 -28 -149 -17 -290 17 -230 21 -252
48 -288 13 -18 29 -30 34 -27 17 11 9 -10 -26 -65 -19 -30 -35 -66 -35 -80 0
-29 -51 -80 -80 -80 -30 0 -224 -74 -277 -106 -26 -16 -70 -34 -98 -41 -69
-16 -120 -35 -233 -90 -53 -26 -101 -49 -107 -52 -5 -2 -2 8 8 22 21 33 7 35
-39 6 -27 -16 -33 -17 -28 -5 4 10 1 16 -7 16 -20 -1 -41 -20 -61 -55 -47 -82
-58 -107 -84 -195 -23 -78 -29 -114 -29 -200 0 -120 28 -274 56 -305 13 -15
15 -25 8 -37 -15 -26 24 -93 87 -151 30 -27 52 -53 49 -57 -7 -12 29 -32 135
-77 121 -51 155 -60 146 -38 -4 10 7 6 32 -12 l37 -27 -25 28 c-22 25 -23 27
-4 18 11 -6 27 -18 34 -27 8 -9 32 -24 54 -33 22 -9 34 -18 28 -20 -23 -7 -1
-21 26 -16 15 3 35 -1 44 -8 16 -12 16 -18 -1 -88 -23 -95 -36 -373 -21 -450
32 -165 32 -149 1 -225 -30 -71 -53 -152 -72 -247 -16 -82 -12 -311 6 -407 18
-95 18 -98 -46 -186 -69 -97 -99 -233 -106 -496 -6 -223 5 -318 43 -374 29
-44 32 -69 5 -60 -27 8 -108 -104 -169 -236 -62 -132 -83 -195 -87 -261 -2
-29 -13 -107 -25 -173 -28 -158 -37 -364 -20 -455 13 -68 13 -68 -17 -117 -45
-73 -141 -282 -152 -333 -6 -25 -14 -92 -17 -150 -5 -87 -2 -118 15 -180 l20
-75 -36 -30 c-20 -16 -43 -34 -50 -40 -7 -5 -21 -32 -31 -59 l-17 -49 -100
-32 c-55 -18 -118 -35 -139 -39 -58 -11 -124 -48 -207 -115 -139 -112 -168
-165 -169 -304 0 -37 -6 -96 -14 -130 -39 -167 -43 -516 -8 -633 12 -37 -1
-58 -49 -78 -30 -13 -32 -15 -14 -21 59 -20 75 -29 75 -41 0 -19 -22 -28 -130
-54 -52 -13 -117 -36 -145 -51 l-50 -29 35 0 35 -1 -30 -24 -30 -24 154 -3
c148 -3 154 -4 162 -25 l8 -22 -147 2 c-164 2 -230 -6 -213 -27 12 -15 88 -34
181 -45 l65 -8 -80 -2 c-116 -2 -255 -21 -282 -38 -29 -20 -30 -37 0 -29 45
13 210 20 204 9 -7 -11 110 -42 167 -44 17 -1 42 -4 55 -8 23 -6 22 -8 -17
-19 -39 -12 -66 -32 -43 -32 6 0 11 -4 11 -10 0 -6 -53 -10 -137 -11 -76 0
-156 -4 -178 -8 -27 -6 19 -9 145 -10 132 -1 199 -5 234 -16 27 -8 62 -15 77
-15 15 0 29 -4 31 -9 4 -11 118 -20 118 -9 0 4 35 8 78 7 82 0 77 -11 -12 -24
-25 -4 -46 -11 -46 -16 0 -19 44 -29 127 -29 93 0 98 -10 15 -31 -52 -14 -61
-26 -29 -40 18 -8 42 -8 80 -2 43 8 54 7 50 -3 -3 -9 16 -14 74 -17 43 -2 103
-12 133 -22 36 -12 90 -18 156 -19 82 -1 98 -3 85 -13 -14 -11 -12 -12 14 -13
46 -1 11 -17 -64 -29 -35 -6 -75 -18 -90 -27 l-26 -18 29 -7 c61 -17 220 -31
272 -25 30 3 54 4 54 2 0 -3 -26 -13 -58 -23 l-57 -18 117 -5 c64 -3 120 -8
124 -12 4 -5 -49 -8 -117 -9 -68 0 -133 -4 -144 -8 -24 -10 13 -18 235 -57 80
-14 150 -29 155 -34 6 -5 31 -8 57 -8 30 1 55 -5 65 -14 25 -22 107 -46 183
-53 100 -10 243 -36 260 -46 15 -10 -98 -6 -222 7 -68 8 -139 -3 -117 -17 8
-5 27 -9 42 -9 52 0 116 -21 110 -36 -7 -20 26 -30 49 -15 16 10 43 10 129 0
60 -7 109 -16 109 -21 0 -4 -4 -8 -10 -8 -5 0 -10 -4 -10 -9 0 -4 31 -11 69
-15 58 -5 157 -34 126 -36 -5 0 1 -8 15 -16 27 -16 27 -16 -115 2 l-40 4 50
-26 c136 -73 314 -124 490 -142 55 -5 105 -17 130 -29 l39 -21 -45 -9 c-47
-10 -127 -2 -314 31 -178 32 -178 16 0 -43 117 -39 119 -39 75 -43 l-45 -4 35
-16 c19 -8 58 -19 85 -23 62 -8 181 -38 305 -75 52 -16 131 -34 175 -40 96
-14 178 -31 173 -35 -2 -2 -57 3 -123 10 -66 8 -129 14 -140 14 -27 -1 48 -34
97 -43 20 -4 38 -12 40 -17 2 -6 32 -12 66 -14 78 -3 89 -11 26 -21 -55 -8
-198 1 -274 17 -52 11 -171 6 -194 -9 -6 -3 27 -12 74 -19 47 -6 108 -16 135
-22 28 -5 71 -10 98 -10 26 -1 55 -5 65 -10 9 -5 80 -19 157 -31 77 -12 156
-29 177 -37 20 -8 51 -13 69 -11 31 3 28 5 -46 42 -66 33 -96 42 -180 51 -78
9 -93 13 -70 19 17 4 40 11 52 16 14 6 43 6 74 0 29 -6 75 -10 103 -10 28 0
87 -7 131 -14 122 -22 311 -39 341 -32 30 8 24 21 -9 22 -12 0 -49 4 -82 9
-52 7 -56 9 -30 15 l30 7 -30 13 c-21 9 -25 14 -15 17 8 3 51 19 95 36 l80 31
-50 7 c-27 4 -87 8 -132 8 -48 1 -83 5 -83 11 0 6 8 10 18 10 10 0 27 7 40 15
24 18 41 15 177 -31 76 -25 115 -25 115 1 0 21 -36 40 -115 60 l-70 19 30 13
c17 7 44 10 62 8 19 -4 36 0 45 8 20 21 269 41 337 28 29 -6 86 -11 125 -10
l71 1 -35 15 c-19 8 -62 17 -95 20 -33 2 -80 9 -105 16 l-45 12 50 5 50 5 -35
22 c-43 28 -33 28 48 3 65 -20 87 -19 78 6 -4 11 13 14 92 15 88 1 93 2 52 11
-25 5 -82 18 -126 29 -45 10 -98 19 -118 19 -45 0 -126 21 -126 33 0 12 110 2
291 -28 84 -13 153 -19 165 -15 11 4 28 4 37 -1 9 -6 49 -9 89 -7 59 3 67 5
43 11 -16 5 -75 22 -130 40 -71 22 -93 32 -75 35 39 6 128 -17 209 -54 75 -35
101 -41 101 -25 0 14 -71 72 -101 83 -16 5 -27 15 -26 21 1 6 -15 15 -36 20
-37 9 -38 10 -17 24 24 17 85 7 201 -32 57 -20 75 -22 97 -13 l27 11 -28 8
c-16 4 -34 12 -40 17 -7 6 -38 18 -69 27 -69 20 -76 30 -14 21 44 -7 182 11
171 22 -3 3 -40 11 -83 17 l-77 11 35 23 c33 21 41 22 130 15 191 -15 246 -1
136 35 -36 11 -87 21 -113 22 -45 1 -43 2 32 16 44 8 116 17 160 18 79 3 80 4
80 29 -1 31 1 31 96 7 95 -24 341 -23 365 1 14 13 7 18 -58 40 -40 15 -113 33
-163 42 -49 8 -112 19 -140 24 -56 10 -57 10 80 49 92 26 112 28 250 26 l150
-2 -57 27 c-32 15 -58 30 -58 35 0 15 43 6 141 -28 102 -35 149 -43 149 -25 0
14 -45 35 -145 65 -86 27 -125 45 -96 45 8 0 57 -14 110 -31 104 -35 192 -43
213 -20 11 11 9 13 -15 7 -28 -7 -119 13 -190 41 -35 14 -38 17 -20 24 46 17
177 11 261 -11 47 -12 94 -19 109 -15 l25 6 -37 29 c-21 17 -65 40 -99 52
l-60 22 58 12 c67 13 97 34 50 35 l-29 0 25 10 c29 12 78 5 180 -26 100 -30
230 -58 237 -52 12 13 -50 37 -157 63 -109 26 -113 28 -80 36 40 11 62 27 39
30 -7 1 11 4 41 7 l55 6 -58 20 -59 19 23 19 c14 11 32 16 48 13 65 -12 176
-17 161 -7 -23 16 31 14 102 -5 42 -10 64 -12 71 -5 19 19 -180 91 -254 91
-19 0 -21 2 -9 10 8 5 28 10 45 10 36 0 145 32 145 42 0 7 -10 17 -45 44 -18
14 -14 15 55 11 79 -5 75 0 -15 26 l-50 15 52 1 c28 1 62 -3 75 -7 36 -13 108
5 108 28 0 13 9 20 28 22 27 4 27 4 -8 15 -31 10 -32 11 -9 12 14 1 46 -6 70
-14 32 -11 53 -13 70 -6 29 11 32 9 -112 50 -59 17 -137 35 -175 40 -64 9 -61
10 43 6 62 -2 115 0 118 5 6 10 -46 40 -70 40 -9 0 -43 15 -76 32 -67 37 -68
41 -48 169 15 97 1 124 -18 34 -22 -105 -37 -108 -29 -4 l6 85 -30 22 c-38 28
-38 38 1 78 19 20 27 34 20 38 -6 4 -11 2 -11 -3 0 -6 -4 -11 -10 -11 -15 0
-12 29 15 108 56 171 62 250 37 512 -11 118 -48 240 -72 240 -12 0 -13 -13 -3
-24 11 -11 31 -97 22 -94 -4 2 -25 26 -46 54 -65 87 -180 174 -230 174 -18 0
-36 10 -165 90 -40 25 -115 68 -168 95 -76 40 -95 54 -93 70 2 11 3 101 3 200
1 330 -46 555 -183 887 -54 129 -67 148 -150 218 -36 30 -66 63 -66 72 -1 9
17 32 39 51 22 19 40 38 40 43 0 5 12 31 26 58 23 44 37 102 64 271 10 64 -3
217 -30 325 -11 47 -32 154 -46 239 -22 132 -33 169 -76 265 -27 61 -58 120
-69 132 -12 12 -19 35 -19 58 0 21 -14 69 -31 108 -20 46 -29 80 -25 97 3 14
15 64 26 111 37 147 39 162 33 305 -5 143 -27 249 -82 395 -34 90 -124 244
-148 255 -24 10 -31 39 -13 50 6 3 10 19 10 36 0 16 11 61 25 100 13 39 28 93
31 120 7 53 12 56 119 75 22 3 54 17 70 29 17 12 90 53 163 89 151 76 222 134
241 197 7 22 9 48 6 58 -3 10 2 61 11 112 33 189 31 219 -22 419 -8 30 -19 70
-24 88 -10 42 -27 62 -52 62 -11 0 -27 14 -39 35 -33 56 -132 107 -294 153
-178 51 -243 65 -278 60 -26 -3 -30 2 -52 55 -23 56 -24 60 -8 105 8 26 22 59
29 74 10 19 14 68 14 175 0 126 -3 155 -20 192 -11 24 -20 52 -20 62 0 16 -54
140 -93 214 -50 93 -48 84 -27 126 68 133 64 308 -10 465 -17 34 -30 69 -30
78 0 9 -3 15 -7 15 -5 -1 -19 -1 -32 0 -21 1 -23 4 -16 38 4 20 20 62 35 93
85 163 105 271 104 535 -2 229 -15 343 -50 430 -14 33 -38 107 -54 165 -28
101 -28 105 -10 127 34 43 59 153 66 284 l7 124 -32 64 c-17 36 -39 74 -49 85
-68 76 -75 130 -27 200 14 20 25 50 25 65 0 16 9 73 21 127 48 231 9 543 -86
686 -14 21 -25 41 -25 46 0 5 14 49 30 98 27 80 30 97 24 169 -8 107 -18 144
-66 247 l-41 86 23 47 c24 49 60 176 60 211 0 31 16 34 127 27 115 -6 245 13
350 53 37 14 84 29 103 34 60 14 80 22 80 30 0 5 -5 10 -11 12 -6 2 -1 29 14
73 42 120 49 160 46 252 -3 66 -8 94 -21 106 -13 13 -14 23 -6 54 5 21 13 56
17 78 5 22 15 67 24 100 22 86 41 283 34 351 -20 196 -29 249 -48 291 -11 27
-27 63 -35 81 -7 17 -18 32 -24 32 -5 0 -16 13 -24 28 -13 26 -25 31 -138 55
-275 60 -358 82 -358 95 0 7 -4 11 -10 7 -5 -3 -14 13 -21 35 -11 35 -9 53 10
133 28 114 38 266 22 344 -6 32 -13 101 -15 154 -2 53 -11 117 -20 144 -16 47
-16 49 14 142 55 172 51 290 -15 421 -30 60 -32 103 -6 119 28 18 65 105 97
228 27 104 29 122 29 320 0 179 -3 226 -22 317 -13 59 -20 114 -17 123 4 9 -2
26 -12 38 -27 31 -40 58 -48 94 -7 31 -8 30 83 208 50 99 63 238 35 370 -18
85 -37 244 -36 306 0 29 10 66 26 97 22 43 24 58 20 118 -9 120 -9 368 0 746
9 355 8 366 -10 365 -15 -2 -20 7 -26 43 -17 94 -14 153 9 200 44 92 54 135
60 261 6 134 -3 194 -40 279 -11 25 -19 58 -18 73 2 34 27 87 41 87 6 0 10 15
10 34 0 19 4 45 9 59 5 13 12 41 15 62 4 21 9 49 12 61 4 13 4 24 1 24 -3 0
-8 -13 -12 -29z m-803 -578 c54 -27 112 -72 136 -105 7 -10 19 -42 27 -70 12
-46 12 -61 -1 -113 -26 -100 -75 -177 -128 -201 -17 -8 -38 -19 -47 -26 -13
-9 -25 -5 -62 21 -69 47 -111 59 -302 87 -16 2 -45 13 -63 24 -32 20 -33 22
-19 44 29 44 50 155 45 240 -3 45 -3 87 -1 94 3 8 30 12 81 13 64 1 136 6 264
17 9 1 40 -10 70 -25z m-452 -48 c0 -56 -15 -77 -24 -34 -20 100 -20 102 3 87
16 -10 21 -23 21 -53z m-1444 -42 c-4 -4 -11 -1 -16 7 -16 25 -11 35 7 17 9
-9 13 -20 9 -24z m2248 -240 c31 -17 12 -40 -58 -73 -36 -16 -67 -30 -69 -30
-6 0 3 169 9 189 3 9 19 -1 52 -31 26 -24 56 -49 66 -55z m209 -202 c27 -51
47 -100 45 -108 -3 -17 -26 22 -48 83 -14 39 -64 94 -84 94 -26 0 -19 -20 23
-65 23 -26 41 -56 45 -80 4 -21 21 -55 38 -76 24 -30 32 -52 38 -106 4 -37 13
-79 18 -93 10 -22 11 -20 11 22 1 26 5 49 10 52 14 9 21 -97 7 -119 -19 -30
-20 -114 -2 -121 10 -4 14 -22 14 -62 0 -31 5 -111 12 -177 8 -87 8 -134 0
-170 -6 -27 -15 -93 -20 -146 -15 -153 -52 -279 -82 -279 -13 0 -18 -8 -18
-30 0 -20 -7 -34 -22 -44 -25 -16 -147 -43 -237 -53 -56 -5 -60 -4 -112 34
-30 22 -73 50 -96 61 -23 12 -45 26 -48 32 -4 6 -27 21 -53 34 -60 31 -221
173 -228 203 -4 14 1 32 15 49 12 15 21 36 21 46 0 11 9 37 20 57 46 86 135
293 161 376 44 141 59 220 59 306 0 74 3 84 32 127 17 26 64 79 104 118 69 68
76 72 131 79 32 4 85 17 118 30 33 12 65 22 70 20 6 -1 32 -43 58 -94z m33 84
c-3 -9 3 -19 14 -25 22 -12 43 -78 38 -118 -3 -23 -11 -12 -51 66 l-47 92 26
0 c19 0 25 -4 20 -15z m-1053 -29 c12 -8 45 -17 72 -21 64 -8 153 -34 160 -45
3 -5 25 -18 48 -29 23 -11 60 -36 82 -56 22 -20 52 -48 68 -61 15 -13 27 -34
27 -47 0 -25 -25 -215 -36 -267 -15 -80 -67 -223 -90 -247 -13 -14 -29 -44
-34 -67 -6 -23 -18 -54 -26 -69 -9 -15 -21 -38 -27 -50 -7 -12 -21 -36 -32
-52 -11 -17 -25 -39 -31 -50 -6 -11 -35 -28 -63 -38 -65 -23 -74 -18 -157 85
-81 99 -236 259 -311 319 -53 43 -61 54 -61 82 1 18 -2 52 -6 77 -8 43 -7 47
18 58 15 7 33 12 41 12 8 0 34 26 58 58 25 31 57 68 72 82 29 27 124 151 145
189 11 21 10 23 -5 17 -17 -6 -17 -5 -1 16 17 25 41 72 50 101 6 21 10 21 39
3z m-1225 -432 c13 -9 33 -14 44 -11 13 4 46 -7 87 -30 124 -67 191 -85 338
-89 73 -2 141 -8 151 -13 11 -6 34 -30 53 -55 19 -24 42 -47 52 -49 10 -3 16
-10 15 -15 -2 -6 2 -11 7 -12 25 -5 47 -23 55 -46 6 -15 17 -24 31 -24 15 0
19 -5 15 -15 -3 -9 3 -19 17 -26 12 -7 43 -29 68 -50 26 -22 52 -39 58 -39 6
0 11 -3 11 -7 0 -5 39 -51 85 -103 47 -52 99 -123 116 -158 17 -34 35 -65 40
-68 12 -7 11 -98 0 -109 -6 -6 -31 -50 -56 -100 -113 -218 -213 -335 -341
-400 -49 -25 -94 -45 -100 -45 -14 0 -33 69 -37 135 l-2 50 -13 -30 c-10 -21
-10 -36 -3 -52 17 -36 -3 -71 -51 -93 -24 -11 -52 -20 -63 -20 -24 0 -187 90
-308 171 -49 33 -92 59 -96 59 -5 0 -15 7 -22 17 -8 9 -39 27 -69 40 -30 14
-70 36 -87 49 -33 25 -76 103 -88 161 -3 18 -14 42 -24 55 -9 13 -30 48 -45
78 -16 30 -36 64 -45 75 -26 31 -67 98 -75 123 -8 25 -44 30 -65 10 -11 -11
-12 -9 -2 9 9 18 8 20 -9 16 -15 -4 -20 0 -20 14 0 11 3 23 7 27 10 10 13 37
3 31 -17 -11 -33 29 -45 117 -10 70 -10 97 -1 108 6 8 18 23 26 34 25 32 213
216 221 216 4 0 15 8 25 18 23 23 86 60 104 61 9 1 26 -6 38 -15z m-1045 -112
c26 -27 47 -52 47 -56 0 -4 -11 -22 -25 -40 -42 -55 -73 -122 -81 -173 -11
-79 -32 -175 -40 -181 -12 -12 16 409 31 471 4 15 10 27 14 27 3 0 27 -22 54
-48z m132 -102 c4 -6 -11 -32 -33 -58 -21 -26 -61 -78 -87 -117 -27 -38 -45
-61 -40 -50 4 11 12 43 18 70 5 28 17 65 26 83 15 31 16 31 21 11 8 -32 28
-35 40 -5 5 14 14 37 20 51 10 26 24 32 35 15z m182 -86 c65 -30 131 -66 148
-78 30 -23 55 -87 55 -142 0 -14 4 -23 9 -20 13 8 23 -26 12 -37 -7 -7 -5 -14
5 -22 19 -13 65 -161 71 -225 3 -30 -2 -64 -17 -103 -23 -62 -62 -97 -180
-165 -30 -17 -61 -40 -68 -52 -14 -23 -138 -85 -162 -81 -8 1 -20 9 -26 17 -6
8 -18 14 -26 14 -20 0 -43 36 -59 91 -15 54 -18 287 -4 293 6 2 -11 2 -37 0
-31 -1 -48 2 -49 9 0 7 -4 2 -9 -10 -5 -13 -13 -23 -18 -23 -13 0 -23 99 -12
119 5 10 6 35 3 57 -4 35 3 55 54 155 63 122 158 259 179 259 7 0 66 -25 131
-56z m2233 -584 c0 -5 5 -10 10 -10 15 0 160 -111 160 -122 0 -23 -24 -50 -63
-69 -34 -18 -62 -22 -142 -24 -55 0 -115 -5 -134 -10 -25 -6 -32 -5 -27 4 4 6
9 33 12 59 10 116 12 120 67 152 51 29 117 40 117 20z m868 -152 c-4 -40 -21
-46 -36 -14 -9 21 -8 27 6 35 28 17 33 13 30 -21z m-73 -100 c23 -75 38 -230
31 -312 -4 -38 -20 -113 -37 -166 -34 -113 -43 -120 -143 -120 -54 0 -195 24
-273 46 -13 3 -23 2 -23 -3 0 -11 -70 -11 -87 0 -9 6 -9 16 1 45 7 20 16 94
19 164 6 117 8 128 32 154 14 15 25 33 25 41 0 8 8 26 19 41 10 15 25 38 33
51 13 23 20 24 114 26 106 2 164 19 219 61 17 13 35 23 42 24 7 0 19 -24 28
-52z m-680 -82 c44 -14 85 -30 91 -34 8 -5 9 -59 3 -192 -10 -257 -36 -360
-103 -413 -34 -26 -49 -67 -25 -67 15 0 2 -52 -17 -66 -8 -7 -31 -34 -50 -60
-59 -83 -161 -153 -334 -227 -49 -21 -64 -23 -131 -16 -47 4 -98 17 -133 33
-31 14 -59 26 -63 26 -3 0 -23 20 -45 45 -22 25 -45 45 -52 45 -39 0 -65 186
-45 325 6 44 13 110 16 147 4 60 8 70 31 85 50 33 67 43 91 53 27 12 113 72
149 104 13 12 41 28 62 36 28 11 50 32 77 70 31 45 53 63 118 98 l80 43 100
-4 c73 -3 121 -11 180 -31z m-2017 -158 c20 -11 41 -24 47 -29 16 -16 42 -10
73 16 30 25 102 36 102 16 0 -6 -22 -22 -50 -37 -45 -24 -67 -54 -40 -54 12 0
34 -49 31 -67 -3 -22 11 -14 45 23 30 32 37 35 66 29 45 -10 101 -39 142 -75
27 -24 43 -30 82 -30 38 0 53 -5 75 -26 26 -25 30 -26 59 -14 28 11 34 11 58
-7 15 -11 57 -36 95 -57 107 -60 118 -92 68 -205 -16 -36 -39 -104 -51 -151
-12 -47 -31 -116 -43 -155 -23 -76 -88 -190 -116 -205 -10 -5 -33 -32 -52 -60
-21 -30 -44 -53 -59 -56 -14 -3 -44 -12 -68 -20 -70 -23 -109 -18 -140 16 -27
29 -62 44 -165 71 -65 16 -155 76 -201 132 -28 35 -45 46 -72 49 -33 4 -35 3
-29 -21 4 -21 1 -19 -19 12 -13 22 -37 53 -54 70 -50 52 -82 144 -83 234 0 43
-4 115 -8 160 -14 144 25 294 88 340 20 15 59 48 86 73 57 52 81 57 133 28z
m802 -228 c0 -11 -4 -20 -9 -20 -14 0 -23 18 -16 30 10 17 25 11 25 -10z m247
-122 c-3 -8 -6 -5 -6 6 -1 11 2 17 5 13 3 -3 4 -12 1 -19z m1277 -114 c51 -5
65 -10 69 -25 7 -25 34 -24 49 1 29 46 93 7 131 -81 14 -30 37 -69 51 -86 17
-20 30 -53 37 -90 6 -32 18 -69 26 -82 36 -56 24 -431 -18 -528 -10 -24 -19
-53 -19 -62 0 -10 -9 -26 -20 -36 -18 -16 -34 -17 -176 -11 -94 4 -167 12
-183 20 -14 7 -53 19 -86 26 -34 7 -78 25 -102 43 -45 32 -49 37 -34 52 6 6
-38 53 -118 127 l-128 116 -7 61 c-4 34 -3 68 1 76 5 8 40 43 78 77 162 147
259 270 234 295 -18 18 10 70 44 83 18 6 43 18 57 26 14 7 31 12 38 9 7 -2 41
-7 76 -11z m-1177 -459 c35 -27 51 -46 50 -60 -1 -13 7 -22 28 -28 46 -13 88
-85 127 -217 9 -31 8 -36 -16 -57 -15 -12 -52 -30 -84 -38 -31 -9 -95 -30
-142 -47 -98 -35 -136 -43 -143 -31 -7 12 10 279 22 341 10 56 27 86 42 77 10
-7 27 23 31 56 4 28 17 51 27 47 3 -2 30 -21 58 -43z m-1615 -5 c7 -11 32 -32
56 -47 46 -29 55 -50 68 -153 6 -44 14 -60 42 -87 19 -18 38 -33 41 -33 3 0
12 -4 19 -9 11 -6 6 -23 -22 -77 -42 -84 -58 -148 -50 -208 6 -37 4 -47 -10
-52 -42 -16 -87 34 -116 131 -6 22 -21 69 -32 105 -23 78 -37 313 -19 324 13
9 14 55 1 76 -13 20 -23 7 -49 -63 -28 -76 -37 -185 -22 -262 24 -121 52 -199
79 -222 26 -22 26 -23 9 -40 -23 -23 -46 -10 -72 43 -61 123 -79 199 -79 339
-1 140 13 184 72 227 44 33 68 35 84 8z m1798 -21 c0 -14 -37 -10 -43 4 -4 10
2 13 19 9 13 -2 24 -8 24 -13z m323 -110 c9 -12 17 -32 17 -44 0 -25 44 -73
100 -109 20 -12 39 -34 44 -51 5 -17 13 -40 19 -52 14 -31 6 -36 -42 -23 -22
6 -102 14 -177 19 -94 6 -139 13 -148 22 -24 27 -49 110 -43 146 5 28 3 34 -8
29 -9 -3 -15 0 -15 8 0 24 34 53 75 64 90 26 151 23 178 -9z m-1247 -154 c-11
-8 -31 -15 -45 -14 -26 1 -26 1 4 14 42 19 66 19 41 0z m158 -60 c-10 -8 -26
-14 -34 -14 -9 0 -6 4 6 9 12 5 25 14 29 20 4 6 10 9 13 6 3 -4 -3 -13 -14
-21z m130 -125 c3 -33 9 -86 12 -118 l6 -59 -55 -47 c-62 -53 -64 -53 -119 9
-73 83 -96 165 -53 189 11 6 31 17 45 26 39 23 123 59 141 60 13 0 18 -13 23
-60z m556 30 c0 -5 -8 -10 -17 -10 -15 0 -16 2 -3 10 19 12 20 12 20 0z
m-1241 -45 c30 -18 67 -37 82 -40 16 -4 38 -20 50 -36 13 -18 29 -29 44 -29
14 0 39 -13 57 -29 40 -35 167 -121 179 -121 5 0 9 -8 9 -19 0 -10 7 -38 15
-61 11 -30 12 -47 5 -55 -7 -9 -7 -21 0 -40 8 -22 6 -33 -10 -60 -11 -18 -27
-35 -35 -38 -23 -9 -74 10 -94 35 -18 22 -20 22 -38 5 -35 -31 -66 -20 -190
62 -99 66 -123 88 -150 133 -55 91 -69 208 -33 286 24 52 39 53 109 7z m1774
1 c65 -22 77 -36 88 -106 5 -36 14 -90 19 -121 15 -82 12 -139 -9 -184 -41
-90 -280 -285 -436 -356 -74 -33 -79 -34 -71 -14 7 19 -5 19 -30 0 -33 -25
-80 -19 -104 15 -13 18 -26 27 -36 23 -8 -3 -25 -1 -37 4 -32 15 -136 33 -189
33 -32 0 -56 7 -82 25 -20 14 -40 25 -45 25 -13 0 -48 43 -70 87 -53 106 -4
235 150 392 70 72 103 98 143 113 28 11 58 25 66 32 28 24 85 37 190 43 58 3
107 7 110 10 9 9 310 -9 343 -21z m221 -77 c-8 -14 -21 -10 -28 9 -3 9 -9 24
-12 32 -4 8 5 4 19 -9 15 -13 24 -28 21 -32z m318 -15 c51 -10 113 -15 179
-12 l100 3 -32 -29 c-31 -28 -34 -28 -108 -21 -42 4 -92 8 -111 10 -105 10
-160 17 -160 23 0 10 33 42 43 42 6 0 45 -7 89 -16z m-152 -124 c0 -12 -28
-25 -36 -17 -9 9 6 27 22 27 8 0 14 -5 14 -10z m404 -92 c23 -32 20 -72 -7
-105 -13 -15 -38 -54 -57 -86 -36 -60 -81 -103 -160 -151 -40 -25 -42 -27 -15
-21 54 11 169 69 243 123 40 28 75 52 78 52 2 0 4 -13 4 -29 0 -40 -42 -78
-150 -135 -244 -128 -389 -150 -464 -67 -11 12 -27 21 -36 21 -10 0 -29 9 -43
20 -31 24 -30 39 9 165 13 44 28 98 34 121 10 41 38 64 80 64 10 0 22 5 25 10
9 14 61 13 85 -2 15 -10 29 -9 69 6 43 15 55 16 92 5 39 -12 43 -12 58 9 13
18 26 21 78 22 53 0 64 -3 77 -22z m-2698 -79 l28 -10 -60 -34 c-43 -24 -87
-65 -157 -142 -53 -59 -109 -125 -124 -145 -15 -21 -32 -37 -37 -38 -5 0 -6
27 -3 60 8 69 26 97 153 238 75 81 76 82 124 82 27 0 61 -5 76 -11z m107 -90
c38 -44 184 -169 198 -169 14 0 10 -51 -7 -95 -8 -22 -17 -52 -19 -67 -5 -34
-34 -91 -51 -101 -8 -4 -14 -18 -14 -30 0 -13 -21 -63 -47 -111 -46 -86 -50
-90 -95 -103 -43 -12 -49 -18 -75 -71 -16 -31 -38 -61 -51 -67 -30 -13 -28
-22 8 -30 34 -7 37 -16 15 -35 -13 -10 -24 -11 -57 -1 -59 18 -101 55 -160
140 -78 114 -106 183 -107 265 0 38 -2 71 -5 73 -31 32 221 338 339 411 67 42
86 41 128 -9z m552 -127 c6 -4 15 -16 21 -27 6 -11 21 -21 33 -23 13 -2 40
-21 61 -42 22 -22 58 -52 82 -67 64 -42 79 -62 74 -102 -3 -19 -13 -43 -24
-55 -18 -21 -48 -86 -74 -161 -11 -32 -21 -42 -48 -51 -32 -10 -36 -16 -42
-57 -3 -25 -9 -51 -13 -58 -4 -6 -2 -15 5 -19 18 -11 3 -47 -23 -54 -79 -21
-153 36 -217 169 -35 71 -40 93 -49 195 -9 112 -9 116 15 163 13 27 24 55 24
62 0 21 32 87 54 113 15 17 30 22 65 22 25 0 51 -4 56 -8z m955 -237 c-7 -8
-27 -15 -44 -14 l-31 1 40 18 c43 20 55 19 35 -5z m365 15 c4 -6 1 -17 -5 -25
-7 -8 -9 -22 -6 -31 5 -14 17 -16 69 -11 34 3 70 3 79 -1 15 -6 14 -10 -5 -32
-52 -59 -117 -76 -176 -45 -49 25 -55 77 -15 124 26 32 48 39 59 21z m-655
-103 c81 -8 115 -16 115 -25 0 -21 27 -32 80 -32 72 0 125 -11 125 -24 0 -7
14 -23 31 -35 26 -19 30 -28 25 -51 -4 -24 1 -33 30 -55 68 -52 91 -117 57
-165 -9 -13 -17 -44 -17 -71 -1 -56 -20 -80 -82 -106 -27 -11 -42 -23 -39 -30
2 -7 -2 -13 -10 -13 -22 0 -244 29 -305 39 -30 6 -98 18 -151 27 -81 14 -103
22 -144 53 -26 20 -54 40 -61 45 -13 11 -94 -9 -94 -23 0 -4 26 -22 58 -39
l57 -31 -41 -1 c-30 0 -52 8 -83 31 -23 16 -41 35 -38 42 2 7 27 21 55 32 29
11 52 25 52 32 0 6 -9 28 -21 48 -24 41 -20 71 16 119 13 17 39 56 57 87 34
56 127 142 164 152 28 7 39 7 164 -6z m1142 -26 c49 -1 60 -4 73 -24 8 -13 26
-29 40 -35 17 -8 25 -20 25 -37 0 -14 7 -28 15 -31 23 -9 19 -23 -34 -136 -60
-126 -86 -161 -112 -153 -10 4 -19 2 -19 -3 0 -20 -128 -138 -178 -165 -40
-22 -62 -27 -99 -25 -42 3 -48 6 -51 28 -3 17 4 31 24 47 l29 23 -23 22 c-19
20 -25 21 -43 10 -25 -16 -33 -10 -49 41 -11 35 -10 40 10 59 21 20 22 22 5
34 -10 7 -23 15 -29 17 -6 2 -11 27 -11 58 0 47 5 62 42 114 41 59 117 138
161 167 19 13 32 13 95 2 39 -7 98 -13 129 -13z m-2087 -103 c12 -124 61 -290
111 -376 34 -58 23 -65 -16 -10 -80 109 -110 200 -117 352 -4 79 -2 117 4 113
6 -4 14 -39 18 -79z m920 -503 c126 -5 342 -37 376 -56 13 -6 18 -17 15 -26
-4 -8 5 -28 19 -45 33 -39 59 -130 58 -203 -1 -85 -43 -211 -88 -259 -19 -21
-35 -42 -35 -47 0 -5 -17 -9 -37 -9 -20 0 -96 -10 -167 -21 -178 -29 -345 -23
-460 15 -44 15 -87 31 -95 36 -10 6 54 9 177 7 134 -1 192 1 192 9 0 7 -54 13
-158 17 -308 13 -300 11 -381 78 -74 60 -201 142 -236 153 -19 5 -20 14 -19
116 1 125 7 139 77 159 23 7 52 17 64 22 12 4 73 13 135 20 62 6 122 15 133
20 22 10 231 27 280 22 17 -1 84 -5 150 -8z m595 -5 c-6 -11 -20 -20 -31 -20
-21 0 -20 1 2 20 31 25 42 25 29 0z m-157 -14 c16 -13 16 -14 1 -20 -10 -4
-21 -1 -26 6 -18 29 -5 36 25 14z m-1323 -61 c-5 -14 -12 -54 -16 -90 -4 -40
-13 -70 -23 -79 -9 -8 -65 -40 -126 -71 -60 -31 -149 -80 -196 -108 -47 -29
-111 -61 -143 -71 l-57 -20 -45 22 c-26 13 -53 36 -64 56 -12 19 -37 41 -61
51 -22 10 -63 36 -91 57 -36 26 -66 40 -100 44 -37 5 -46 9 -38 19 6 7 22 16
35 19 14 4 41 17 61 31 36 25 93 45 127 45 10 0 34 7 55 16 20 8 111 26 201
40 90 13 182 29 205 35 23 6 82 11 133 12 50 1 95 5 99 10 4 4 18 7 30 7 21 0
22 -3 14 -25z m1450 -8 c0 -22 54 -35 155 -35 94 0 302 -27 424 -55 36 -8 55
-17 57 -29 1 -9 11 -29 22 -45 l21 -28 -21 -63 c-14 -42 -34 -75 -59 -101 -36
-35 -45 -39 -127 -50 -73 -10 -117 -9 -257 4 -93 9 -171 18 -173 20 -8 8 -43
-16 -37 -26 4 -5 -4 -9 -16 -9 -19 0 -21 4 -16 30 28 137 8 307 -39 346 l-26
21 23 17 c28 19 69 21 69 3z m708 -84 c-10 -2 -26 -2 -35 0 -10 3 -2 5 17 5
19 0 27 -2 18 -5z m-3212 -75 c-3 -18 -11 -65 -18 -104 -11 -69 -12 -70 -52
-86 -23 -9 -52 -19 -66 -23 -14 -4 -61 -24 -105 -46 -116 -57 -132 -52 -185
57 -23 46 -39 88 -35 94 12 20 120 68 180 80 33 7 65 16 70 20 6 4 37 11 71
15 33 3 67 11 75 16 8 5 27 9 43 9 27 0 28 -2 22 -32z m3649 -39 c186 -40 289
-67 268 -68 -22 -2 -14 -38 16 -70 34 -36 39 -48 54 -121 19 -98 3 -518 -22
-559 -4 -6 -63 9 -156 39 -83 26 -183 56 -224 65 -84 20 -144 56 -162 99 -7
16 -35 65 -62 110 -28 44 -53 99 -56 121 -5 35 -11 43 -46 59 -22 10 -50 31
-63 47 l-23 28 21 21 c22 22 25 36 11 44 -5 3 -5 25 0 48 4 24 8 69 9 100 l0
57 53 10 c118 25 137 23 382 -30z m-2585 -115 c8 -17 25 -41 38 -54 12 -13 22
-32 22 -43 0 -25 16 -54 57 -102 66 -76 85 -94 127 -114 24 -11 56 -31 72 -44
56 -47 209 -143 307 -191 54 -27 100 -53 103 -58 3 -4 -9 -11 -26 -14 -33 -7
-36 -28 -4 -30 73 -4 67 3 60 -70 -6 -56 -11 -71 -39 -98 -18 -18 -43 -49 -57
-69 -29 -42 -127 -107 -185 -123 -22 -6 -49 -13 -60 -17 -16 -5 -35 5 -80 43
-87 74 -145 84 -85 16 37 -41 35 -44 -13 -16 -19 11 -41 18 -50 15 -8 -4 -33
3 -56 14 -49 25 -52 26 -45 4 3 -10 -5 -5 -20 12 -41 48 -50 57 -120 118 -85
75 -105 108 -37 63 50 -34 189 -96 213 -96 7 0 -28 22 -79 49 -105 56 -196
123 -246 181 -46 54 -92 224 -112 417 -6 53 -4 63 12 71 10 6 43 36 73 67 60
62 138 106 185 102 22 -1 34 -10 45 -33z m2084 -48 c-6 -16 -24 -23 -24 -8 0
10 22 33 27 28 2 -2 1 -11 -3 -20z m-3044 -90 c30 -14 63 -26 73 -26 10 0 35
-9 55 -19 20 -11 66 -25 102 -31 60 -11 101 -25 140 -49 8 -5 28 -15 44 -22
l29 -14 -6 -116 c-5 -114 -5 -116 -43 -170 -67 -95 -98 -129 -117 -129 -11 0
-34 -7 -53 -16 -26 -13 -54 -15 -113 -12 -66 4 -93 11 -164 45 -155 75 -265
158 -340 257 -31 40 -38 57 -35 83 3 24 0 33 -11 33 -10 0 -8 7 10 26 43 46
112 91 191 124 42 18 85 40 95 50 24 23 75 18 143 -14z m3010 -105 l65 -6 32
-54 c18 -30 40 -80 49 -110 8 -31 28 -69 44 -86 53 -57 100 -181 125 -328 l6
-39 -30 7 c-38 8 -41 -8 -10 -59 12 -21 17 -41 13 -48 -5 -7 -7 -20 -6 -30 2
-11 -9 -20 -33 -28 -19 -6 -48 -22 -63 -35 -35 -30 -116 -67 -160 -74 -19 -3
-34 -10 -33 -15 2 -5 -48 -33 -110 -63 l-112 -53 -106 21 c-58 11 -135 29
-171 39 -36 10 -81 21 -100 25 -112 21 -234 74 -322 141 -31 23 -69 50 -85 58
-15 8 -58 44 -95 79 l-68 63 0 78 0 78 58 56 c58 58 189 152 211 152 6 0 24
12 39 27 15 15 56 47 92 72 36 24 77 53 92 64 17 13 36 18 53 15 15 -3 52 1
83 9 160 42 382 60 542 44z m-2413 -88 c-3 -10 -5 -2 -5 17 0 19 2 27 5 18 2
-10 2 -26 0 -35z m1113 -183 c8 -5 11 -12 8 -16 -10 -9 -58 4 -58 16 0 13 30
13 50 0z m-2130 -19 c0 -5 20 -32 45 -59 60 -67 127 -97 283 -128 70 -14 129
-27 131 -30 10 -10 -109 -3 -169 10 -77 17 -204 67 -232 93 -52 45 -94 123
-68 123 6 0 10 -4 10 -9z m857 -141 c-14 -21 -14 -21 -20 2 -4 12 2 38 11 57
l17 36 3 -37 c2 -22 -3 -47 -11 -58z m2991 70 c29 -11 110 -36 180 -56 248
-69 269 -79 255 -121 -6 -18 -120 -16 -208 2 -69 15 -225 82 -225 98 0 4 -16
23 -35 43 -33 33 -44 54 -27 54 4 0 31 -9 60 -20z m50 -139 c9 -5 44 -21 77
-35 74 -32 63 -33 -32 -4 -41 13 -73 28 -73 35 0 15 5 16 28 4z m-2987 -165
c11 -19 28 -36 38 -39 12 -3 20 -18 24 -45 9 -50 59 -115 166 -212 54 -49 77
-76 69 -81 -7 -4 -38 -12 -69 -19 -53 -12 -64 -11 -150 14 -129 38 -183 59
-334 131 -203 98 -290 153 -275 175 9 13 158 60 192 60 21 0 38 5 38 10 0 6
-8 10 -17 10 -15 0 -14 2 3 15 14 11 52 14 157 15 l138 0 20 -34z m2881 -41
c3 -14 1 -28 -3 -31 -5 -3 -9 9 -9 25 0 38 6 40 12 6z m203 -24 c-11 -11 -33
-23 -50 -27 -27 -7 -29 -6 -16 9 11 14 47 30 81 36 2 1 -4 -8 -15 -18z m245
-28 c0 -44 1 -45 19 -29 17 16 19 16 25 -1 10 -25 -4 -126 -20 -143 -8 -8 -22
-24 -32 -36 -29 -35 -114 -64 -221 -74 -109 -10 -221 -27 -245 -36 -21 -8 -20
1 3 34 10 15 40 59 65 97 74 111 107 155 117 156 5 1 14 2 20 3 5 0 19 12 29
26 21 28 95 47 188 49 l52 1 0 -47z m-2110 7 c0 -5 -7 -10 -16 -10 -8 0 -12 5
-9 10 3 6 10 10 16 10 5 0 9 -4 9 -10z m320 -85 c17 -9 30 -18 30 -20 0 -12
-29 -3 -50 15 -28 24 -20 26 20 5z m-176 -51 c16 -8 34 -14 41 -14 19 0 257
-165 325 -226 14 -13 59 -36 100 -53 70 -28 75 -32 72 -57 -6 -49 -18 -54
-252 -103 -205 -43 -265 -53 -294 -45 -22 5 -25 13 -32 72 -6 59 -8 64 -20 47
-8 -10 -14 -38 -14 -62 0 -49 -1 -49 -82 -32 -148 32 -272 148 -341 317 -23
57 -23 64 -9 68 10 3 24 10 32 15 50 31 182 69 290 84 102 13 138 11 184 -11z
m1436 -8 c0 -2 -8 -10 -17 -17 -16 -13 -17 -12 -4 4 13 16 21 21 21 13z
m-3065 -99 c94 -44 186 -86 205 -93 l35 -13 -45 -1 c-102 -1 -302 85 -375 161
-36 37 -37 41 -15 34 14 -4 102 -44 195 -88z m2996 74 c-19 -35 -76 -74 -186
-127 -142 -68 -255 -108 -268 -95 -6 6 -9 12 -6 13 2 2 47 25 99 51 52 26 120
61 150 77 64 34 201 98 213 99 4 1 3 -8 -2 -18z m-1101 -76 c19 -19 32 -35 29
-35 -3 0 -20 16 -39 35 -19 19 -32 35 -29 35 3 0 20 -16 39 -35z m494 -32
l139 -6 -57 -29 c-31 -15 -56 -31 -56 -34 0 -4 19 -4 43 -1 41 5 41 4 13 -8
-27 -11 -38 -8 -130 32 -56 24 -110 48 -121 54 -18 8 -17 9 5 4 14 -3 88 -8
164 -12z m-403 -46 c-12 -12 -28 -2 -42 25 -11 20 -11 20 20 2 18 -11 27 -22
22 -27z m-1326 -28 c30 -32 30 -32 5 -25 -14 3 -47 11 -75 18 -43 9 -47 12
-27 19 12 5 25 15 28 24 8 19 28 8 69 -36z m435 4 c0 -22 -16 -40 -27 -29 -3
3 -2 22 2 42 5 28 9 34 16 23 5 -8 9 -24 9 -36z m-103 -40 c-3 -10 -5 -2 -5
17 0 19 2 27 5 18 2 -10 2 -26 0 -35z m-569 -8 c31 -7 105 -16 165 -20 l107
-7 0 -63 c0 -80 -6 -95 -38 -95 l-25 0 23 25 c27 29 19 46 -12 26 -19 -12 -23
-11 -37 8 -22 29 -157 78 -266 97 -95 17 -124 29 -84 38 34 8 93 12 102 8 5
-2 34 -10 65 -17z m348 -203 c-13 -12 -15 7 -8 59 l7 54 3 -54 c2 -29 1 -56
-2 -59z m-390 73 c110 -28 151 -51 69 -40 -27 4 -77 16 -110 26 -33 10 -73 19
-90 19 -23 0 -27 3 -15 10 22 14 37 13 146 -15z m1464 -155 c-8 -5 -22 -9 -30
-9 -10 0 -8 3 5 9 27 12 43 12 25 0z m350 -660 c14 -23 0 -92 -24 -119 -15
-17 -17 -25 -8 -28 42 -16 -23 -33 -206 -54 -79 -9 -124 -9 -200 0 -127 15
-142 31 -31 31 103 0 355 18 389 27 14 4 -82 12 -213 18 l-237 10 29 36 c17
20 43 39 58 43 15 3 64 17 108 31 71 22 95 25 203 22 95 -2 125 -6 132 -17z
m-1096 -27 c47 -42 55 -56 31 -51 -29 5 -29 -21 0 -34 26 -12 27 -14 20 -71
-3 -32 -10 -70 -15 -83 l-9 -24 -58 22 c-32 12 -70 30 -85 40 -14 10 -33 18
-42 18 -45 0 6 135 71 189 21 17 39 31 42 31 2 0 22 -17 45 -37z m401 5 c52
-32 87 -66 80 -78 -3 -6 -44 -10 -90 -10 -73 0 -86 3 -95 19 -14 28 -12 52 7
73 22 24 54 23 98 -4z m873 -142 c-2 -1 -13 -10 -26 -20 l-22 -19 11 32 c9 26
14 29 25 20 8 -7 13 -12 12 -13z m-771 -2 c-3 -3 -12 -4 -19 -1 -8 3 -5 6 6 6
11 1 17 -2 13 -5z m1388 -96 c34 -106 54 -318 38 -399 -22 -106 -51 -198 -71
-224 -12 -14 -30 -46 -42 -70 -37 -76 -101 -115 -130 -80 -16 19 -40 20 -40 1
0 -9 -20 -15 -72 -18 -120 -9 -218 33 -204 87 3 12 -1 36 -10 54 -16 32 -202
211 -254 244 -28 18 -30 23 -30 85 0 64 1 66 42 104 24 22 78 67 120 101 78
61 86 71 68 82 -10 6 29 44 65 62 57 29 208 49 386 52 l107 1 27 -82z m-805
58 c0 -18 -22 -26 -75 -26 -78 0 -86 13 -15 26 89 16 90 16 90 0z m-567 -152
c16 -13 38 -24 50 -24 11 0 33 -12 48 -26 24 -23 26 -29 17 -58 -6 -17 -16
-37 -22 -45 -5 -7 -15 -23 -21 -35 -6 -12 -23 -23 -40 -26 -19 -3 -30 -11 -30
-22 0 -19 -100 -102 -114 -94 -5 4 -13 21 -16 39 -8 37 -23 59 -36 52 -27 -18
-57 128 -51 252 l4 102 92 -46 c50 -25 104 -56 119 -69z m580 54 c-8 -70 -13
-76 -68 -106 l-54 -30 -68 25 c-72 26 -163 74 -163 85 0 13 74 26 187 33 89 5
161 16 169 24 0 1 -1 -14 -3 -31z m-1182 -34 c17 -8 29 -18 26 -20 -6 -7 -54
13 -62 25 -9 15 1 14 36 -5z m-112 -65 c11 -6 1 -8 -34 -3 -27 3 -54 11 -60
16 -13 13 71 2 94 -13z m43 -41 c48 -9 61 -16 90 -52 18 -22 48 -54 67 -71 59
-52 82 -99 140 -290 11 -39 21 -75 21 -80 0 -6 14 -37 31 -70 28 -56 30 -64
20 -102 -11 -40 -17 -45 -99 -88 -73 -39 -93 -45 -125 -40 -29 4 -44 1 -64
-15 -16 -12 -41 -20 -65 -20 -29 0 -51 -9 -85 -35 -26 -20 -58 -38 -72 -41
-14 -3 -36 -9 -48 -14 -37 -15 -79 29 -165 170 -8 14 -33 72 -56 130 -22 58
-59 143 -82 190 l-41 85 5 -80 c5 -85 26 -157 71 -244 36 -71 95 -161 107
-161 12 0 58 -46 58 -58 0 -6 -7 -12 -15 -16 -39 -15 -156 148 -217 302 -18
46 -34 78 -36 72 -17 -51 89 -310 152 -374 18 -17 65 -49 104 -69 40 -21 72
-42 72 -48 0 -18 -50 -8 -98 20 -27 16 -58 32 -70 35 -38 12 -125 173 -167
308 -23 74 -26 99 -22 165 7 92 19 160 35 188 6 11 14 33 17 49 7 33 96 126
146 151 19 10 71 28 117 41 56 16 94 33 118 53 37 33 33 32 156 9z m983 -100
c23 -20 -76 2 -112 25 -7 5 -13 17 -13 28 0 18 5 17 58 -13 31 -17 61 -35 67
-40z m-177 -79 c9 0 2 -5 -17 -10 -36 -11 -47 -7 -36 11 4 6 14 9 22 6 8 -3
22 -6 31 -7z m223 -48 c148 -52 258 -119 313 -190 21 -28 42 -51 47 -51 5 0
15 -13 24 -30 14 -28 14 -30 -6 -40 -20 -11 -20 -12 -2 -32 10 -11 30 -26 44
-33 46 -24 81 -184 93 -417 l4 -98 -85 -26 c-89 -27 -149 -28 -233 -2 -47 14
-164 73 -203 101 -18 13 -52 30 -77 38 -24 7 -72 32 -105 55 -33 23 -96 60
-140 83 -44 24 -82 45 -85 47 -2 3 -8 38 -12 77 -3 40 -10 90 -14 112 -22 115
3 295 40 295 7 0 29 18 50 40 20 22 42 40 49 40 7 0 26 7 42 16 69 36 178 42
256 15z m987 -292 c-6 -16 -12 -28 -14 -26 -5 5 13 57 20 57 3 0 0 -14 -6 -31z
m-36 -71 c-10 -17 -24 -34 -32 -36 -7 -3 -1 12 15 32 34 44 40 46 17 4z
m-1443 -133 c0 -5 -4 -3 -9 5 -5 8 -9 22 -9 30 0 16 17 -16 18 -35z m1533 -68
c43 -130 50 -179 41 -284 -4 -54 -11 -81 -25 -95 -10 -10 -18 -23 -18 -28 0
-6 -7 -21 -15 -34 l-16 -24 -39 19 c-57 28 -167 48 -226 42 l-51 -5 -33 47
c-25 36 -35 44 -42 34 -7 -10 -8 -7 -4 10 6 28 -9 61 -28 61 -10 0 -15 25 -20
88 -4 48 -4 94 -1 103 3 9 -3 39 -14 67 -11 28 -17 53 -13 56 11 6 85 1 98 -7
7 -4 30 -1 52 7 50 18 222 40 259 34 15 -3 37 -9 48 -13 16 -7 18 -6 8 6 -14
15 -17 29 -5 29 4 0 24 -51 44 -113z m-1762 -29 c0 -12 -28 -9 -36 3 -3 6 0
15 7 20 13 7 28 -5 29 -23z m217 -127 c45 -21 60 -49 43 -81 -8 -15 -7 -27 7
-52 l18 -33 2 45 c6 94 14 130 30 130 8 0 52 -17 97 -39 65 -30 95 -53 152
-112 72 -75 134 -161 172 -236 12 -23 33 -58 46 -78 27 -39 26 -92 -1 -108 -7
-4 -13 -15 -13 -23 0 -52 -161 -218 -310 -319 -63 -43 -130 -91 -148 -106 -23
-21 -43 -29 -70 -29 -21 0 -55 -9 -77 -20 -42 -22 -79 -24 -137 -11 -25 6 -38
5 -38 -1 0 -6 -12 -8 -29 -5 -23 5 -36 -1 -66 -29 -44 -40 -68 -43 -98 -11
-12 13 -55 41 -96 61 -40 20 -93 50 -116 66 -24 17 -51 30 -59 30 -9 0 -35 17
-57 37 -39 35 -41 36 -34 13 13 -43 66 -108 126 -155 33 -26 59 -53 59 -60 0
-8 12 -22 26 -31 44 -30 5 -37 -61 -12 -45 17 -70 36 -117 89 -74 82 -118 148
-118 174 1 17 4 16 25 -10 l25 -30 -6 50 c-4 28 -13 63 -20 79 -25 52 -12 113
36 176 36 48 130 205 130 219 0 6 12 37 26 69 28 61 70 99 134 121 19 6 51 22
70 35 138 91 362 215 390 216 8 0 34 -9 57 -19z m-1353 -216 c11 -8 28 -15 38
-15 10 0 35 -15 55 -34 21 -18 60 -45 88 -61 108 -60 132 -82 155 -142 22 -58
22 -91 2 -148 -6 -16 -16 -48 -21 -71 -8 -31 -18 -44 -45 -56 -26 -13 -35 -24
-40 -53 -4 -20 -14 -39 -22 -42 -7 -3 -14 -11 -14 -18 0 -8 -9 -16 -20 -20
-16 -5 -18 -9 -8 -25 20 -31 -2 -37 -27 -7 -13 15 -29 27 -34 27 -14 0 -55 56
-85 117 -15 28 -39 100 -55 160 -16 59 -33 119 -39 134 -12 29 -2 91 21 135
15 30 15 33 -2 48 -28 25 -41 19 -43 -21 -1 -21 -2 -56 -3 -78 -5 -98 51 -403
79 -434 8 -9 18 -29 22 -44 5 -24 11 -28 31 -24 18 3 23 1 19 -10 -3 -8 -6
-19 -6 -24 0 -5 -16 -9 -35 -9 -32 0 -36 4 -66 63 -43 87 -105 411 -96 507 5
63 34 130 55 130 8 0 27 -14 43 -31 16 -17 29 -28 29 -23 0 4 -12 20 -26 35
-14 15 -23 32 -20 38 10 15 47 13 70 -4z m2426 5 c0 -5 -5 -10 -11 -10 -5 0
-7 5 -4 10 3 6 8 10 11 10 2 0 4 -4 4 -10z m-272 -95 c106 -8 149 -20 163 -47
14 -26 -4 -45 -99 -110 -79 -53 -82 -54 -164 -15 -46 21 -48 24 -62 86 -8 36
-13 68 -10 73 3 4 0 16 -5 26 -10 18 -8 18 40 6 27 -7 89 -16 137 -19z m-200
-15 c-2 -7 -10 1 -17 16 -12 27 -11 28 4 12 10 -9 16 -21 13 -28z m800 -7 c39
-9 72 -20 72 -25 0 -5 11 -24 24 -41 68 -90 135 -239 147 -327 5 -30 14 -83
21 -118 28 -145 -37 -569 -106 -687 -25 -42 -28 -44 -43 -29 -15 14 -17 13
-28 -13 -7 -15 -26 -40 -42 -56 l-29 -27 -114 29 c-122 33 -131 38 -211 134
-47 56 -49 60 -49 120 0 35 -6 87 -14 117 -73 279 -94 334 -160 429 l-38 53
13 66 c13 63 17 69 124 187 68 74 137 138 180 168 67 45 72 46 125 41 30 -3
88 -12 128 -21z m-703 -369 c23 -9 88 -111 104 -164 16 -52 51 -110 67 -110
32 0 67 -224 62 -396 l-3 -116 -44 -39 c-53 -47 -92 -59 -199 -59 -125 0 -167
14 -203 67 -49 70 -250 278 -266 275 -8 -2 -23 4 -33 13 -13 12 -16 24 -10 54
4 20 9 42 13 48 3 5 52 45 109 88 57 43 120 92 140 108 20 16 41 26 46 23 16
-10 81 63 113 127 46 91 56 99 104 81z m-1714 -426 c89 -109 110 -128 149
-128 38 0 43 -5 70 -77 8 -23 9 -37 1 -51 -6 -12 -11 -48 -11 -81 0 -42 -6
-71 -20 -96 -11 -20 -18 -40 -15 -45 3 -5 -1 -33 -10 -62 -10 -34 -13 -69 -9
-100 6 -42 3 -52 -21 -84 -15 -20 -43 -42 -61 -50 -43 -18 -127 -18 -162 0
-53 27 -69 28 -75 6 -5 -18 -9 -20 -26 -11 -28 16 -134 165 -188 268 -50 93
-69 100 -32 11 40 -94 137 -225 231 -311 97 -89 103 -116 11 -44 -102 80 -131
115 -258 317 -23 37 -38 94 -38 145 0 107 12 193 31 231 24 46 39 56 80 48 22
-4 30 0 44 25 15 28 22 31 65 31 39 0 52 5 80 32 30 29 36 31 63 21 29 -11 30
-10 24 12 -3 13 -3 29 1 34 13 22 34 10 76 -41z m495 -9 c8 -14 -20 -10 -41 5
-18 13 -18 14 8 9 15 -3 30 -9 33 -14z m622 -96 c104 -66 202 -170 246 -263 9
-19 30 -51 47 -70 52 -59 61 -78 63 -135 0 -33 5 -55 12 -55 19 0 31 -90 22
-165 -17 -143 -20 -155 -34 -155 -7 0 -37 -11 -66 -24 -101 -47 -155 -65 -219
-75 -85 -14 -99 -14 -99 4 0 8 -4 15 -10 15 -5 0 -10 -5 -10 -11 0 -18 -132
-4 -186 20 -57 25 -61 26 -42 4 8 -10 18 -24 23 -31 18 -33 -37 12 -91 73 -32
36 -62 65 -66 65 -18 0 -124 54 -180 92 -40 27 -60 48 -69 73 -8 22 -18 34
-26 31 -7 -3 -13 2 -13 10 0 17 1 17 85 -40 147 -100 326 -180 464 -207 34 -6
65 -18 68 -25 2 -7 10 -11 16 -8 24 9 7 549 -16 541 -20 -6 -27 -61 -16 -123
10 -59 7 -208 -6 -290 -4 -26 -3 -44 4 -48 6 -4 11 -16 11 -27 0 -18 -2 -18
-27 -5 -16 7 -68 26 -118 41 -209 62 -317 120 -423 225 -42 41 -56 50 -63 39
-16 -24 -31 11 -24 56 4 22 12 75 18 118 14 90 29 108 108 124 26 6 78 27 115
49 95 53 373 167 406 166 14 -1 29 5 32 13 7 20 31 19 64 -2z m1407 -390 c-24
-45 -43 -65 -54 -59 -6 4 5 23 27 46 45 47 47 48 27 13z m-520 -31 c102 -36
127 -64 160 -180 21 -74 -52 -183 -150 -227 -47 -20 -60 -22 -131 -14 -43 4
-118 8 -166 8 l-88 1 6 73 c5 57 2 86 -15 144 -12 40 -26 75 -31 78 -6 3 -10
10 -10 14 0 15 75 40 138 46 73 7 178 37 207 59 25 19 20 19 80 -2z m293 -83
c62 -15 69 -23 37 -45 -15 -11 -42 -32 -61 -48 l-34 -28 0 50 c0 28 -3 57 -6
66 -7 19 2 20 64 5z m299 -51 c36 -10 45 -17 59 -52 26 -63 30 -211 9 -277
-59 -183 -154 -309 -288 -384 -87 -49 -106 -51 -148 -15 -22 20 -23 20 -2 11
42 -21 48 -10 12 22 -27 23 -46 56 -68 114 -18 44 -49 109 -71 142 -22 34 -40
70 -40 81 0 28 11 51 22 44 5 -3 46 32 91 78 75 76 120 114 241 204 50 37 94
55 121 48 11 -3 39 -11 62 -16z m-1012 -268 c-11 -17 -23 -1 -18 21 5 19 7 19
15 5 5 -9 6 -21 3 -26z m328 -86 c21 -8 52 -29 69 -47 32 -34 94 -120 90 -125
-1 -1 4 -15 13 -32 18 -34 19 -104 2 -142 -15 -33 -81 -105 -127 -140 -19 -14
-60 -31 -90 -37 -30 -6 -100 -25 -155 -40 -88 -26 -101 -28 -109 -14 -7 13
-27 14 -140 8 -130 -7 -131 -6 -208 24 -42 17 -82 29 -90 26 -14 -6 -38 56
-38 100 0 14 -4 25 -10 25 -5 0 -10 9 -10 20 0 11 5 20 11 20 12 0 8 85 -6
141 -6 25 -3 28 47 44 29 10 80 31 113 47 33 16 93 37 133 48 82 21 93 27 72
41 -13 8 -13 11 3 23 25 20 99 30 108 15 5 -9 11 -8 23 3 13 14 36 15 138 11
71 -3 139 -11 161 -19z m-2418 -10 c13 -14 28 -40 34 -57 13 -44 23 -107 17
-107 -8 0 -36 57 -36 74 0 8 -13 38 -30 66 -32 54 -24 66 15 24z m860 12 c65
-8 112 -20 154 -38 24 -10 76 -23 115 -28 39 -6 108 -22 154 -36 70 -23 88
-33 116 -68 40 -49 73 -111 92 -174 15 -52 14 -56 -23 -57 -20 0 -28 -6 -33
-25 -4 -17 -14 -26 -30 -28 -47 -6 -51 -9 -38 -36 l11 -25 54 49 c57 52 67 57
79 39 9 -16 -93 -116 -143 -140 -24 -12 -41 -25 -38 -29 12 -19 -38 -32 -96
-25 -60 7 -60 7 -54 -17 9 -34 -28 -78 -65 -78 -23 0 -30 -5 -35 -29 -8 -36
-71 -59 -107 -40 -119 63 -308 243 -361 344 l-16 30 -1 -30 c0 -53 51 -135
139 -222 83 -83 84 -92 3 -45 -27 15 -56 45 -78 79 -38 60 -84 157 -84 178 0
8 -16 23 -35 35 -28 17 -35 28 -35 53 0 84 28 128 183 291 77 81 88 88 114 82
15 -3 42 -8 58 -10z m-784 -55 c14 -7 33 -25 42 -41 10 -16 31 -40 48 -54 33
-28 59 -36 39 -11 -19 23 0 18 37 -11 24 -18 32 -31 28 -44 -3 -11 1 -41 9
-69 15 -50 13 -61 -10 -61 -30 0 -154 158 -154 197 0 11 -14 32 -31 49 -31 29
-58 70 -42 62 4 -2 20 -10 34 -17z m-182 -186 c-7 -33 -12 -69 -11 -79 1 -14
-2 -16 -10 -8 -11 11 4 171 20 209 13 33 14 -59 1 -122z m1596 65 c6 0 24 -65
30 -110 l6 -45 -33 60 c-18 33 -44 75 -57 93 l-23 33 37 -15 c21 -9 39 -16 40
-16z m1675 -103 c6 -18 15 -39 20 -47 95 -167 132 -329 110 -482 -6 -47 -18
-96 -26 -109 -7 -13 -20 -39 -29 -56 -17 -36 -40 -46 -30 -13 13 40 -14 19
-42 -32 -55 -103 -170 -130 -292 -68 -34 16 -61 26 -61 20 0 -7 -6 -8 -19 -1
-23 13 -35 97 -20 141 13 36 5 65 -8 31 -9 -22 -11 -20 -22 25 -6 27 -16 63
-21 79 -5 17 -10 44 -11 60 -4 54 24 179 49 223 22 39 27 42 65 42 47 0 144
49 154 78 12 31 137 148 155 144 9 -2 22 -18 28 -35z m-464 -148 c41 -25 42
-42 9 -91 -14 -20 -25 -42 -25 -47 0 -6 -11 -18 -25 -27 -19 -12 -28 -14 -39
-5 -7 6 -36 18 -64 26 -54 16 -77 35 -44 35 13 0 39 24 71 65 28 36 59 65 67
65 9 0 32 -9 50 -21z m-2823 -32 c3 -22 2 -35 -4 -32 -5 4 -9 22 -9 42 0 45 5
40 13 -10z m7 -74 c0 -22 -2 -25 -10 -13 -13 20 -13 40 0 40 6 0 10 -12 10
-27z m2635 -92 c50 -10 102 -24 118 -31 25 -12 27 -18 27 -74 1 -34 5 -81 9
-105 8 -38 5 -53 -19 -106 -39 -87 -79 -128 -179 -183 l-86 -47 -145 -7 c-126
-5 -154 -4 -211 13 -37 10 -77 28 -90 38 -14 10 -42 26 -64 35 -22 9 -49 25
-60 35 -11 10 -41 29 -66 44 -77 44 -77 44 10 132 162 165 164 167 266 182
118 17 190 36 278 73 41 17 83 28 97 25 14 -2 66 -13 115 -24z m-830 -37 l30
-26 -35 7 c-41 8 -55 19 -46 34 10 16 18 14 51 -15z m-1324 -121 c68 -94 168
-197 220 -226 30 -17 31 -19 24 -65 -3 -26 -6 -62 -6 -80 1 -25 -4 -35 -24
-44 -14 -6 -25 -17 -25 -25 0 -17 -3 -17 -45 7 -34 19 -85 27 -85 14 0 -4 8
-13 18 -21 15 -13 15 -13 -8 -7 -22 5 -19 0 20 -40 67 -69 20 -61 -58 10 -138
124 -261 310 -247 373 9 44 26 50 23 8 -1 -24 8 -49 31 -86 18 -28 35 -51 37
-51 3 0 -9 26 -26 58 -31 58 -37 82 -21 82 4 0 16 -21 26 -46 25 -67 31 -46 6
25 -37 109 -24 161 49 190 14 5 26 10 26 10 1 1 30 -38 65 -86z m1342 78 c22
-5 50 -19 63 -32 l23 -22 -50 -55 c-28 -31 -59 -67 -68 -81 -16 -25 -16 -25
-23 44 -4 39 -10 89 -14 113 -7 47 -3 49 69 33z m-1208 -111 c10 -11 16 -20
13 -20 -3 0 -13 9 -23 20 -10 11 -16 20 -13 20 3 0 13 -9 23 -20z m924 -118
c25 -21 74 -58 109 -81 35 -23 68 -54 75 -68 l12 -26 5 23 c9 39 25 33 70 -25
62 -81 157 -166 227 -202 33 -18 67 -33 75 -33 8 0 23 -9 33 -20 10 -11 23
-20 29 -20 16 -1 71 -79 85 -119 9 -28 8 -39 -3 -56 -17 -25 -74 -55 -106 -55
-28 0 -62 19 -55 31 8 12 -11 11 -57 -2 -21 -5 -38 -14 -38 -20 0 -5 -14 1
-30 13 -26 19 -45 23 -120 24 -54 1 -108 -4 -136 -12 -62 -18 -98 -18 -115 2
-8 10 -22 14 -38 11 -14 -3 -46 -2 -71 3 -27 5 -49 5 -55 -1 -16 -15 -54 -10
-123 18 -133 52 -245 173 -277 298 -25 99 -23 107 50 164 35 28 69 51 75 51 5
0 15 -9 22 -19 15 -24 35 -17 54 20 8 16 19 29 25 29 5 0 47 18 91 40 45 22
88 40 95 40 8 0 16 7 19 15 9 23 22 19 73 -23z m1362 -198 c59 -41 138 -67
270 -89 34 -5 109 -65 109 -87 0 -4 -22 -8 -49 -8 -32 0 -99 -17 -197 -50 -82
-28 -158 -49 -169 -47 -12 1 7 12 47 25 58 20 99 46 87 56 -2 2 -67 -10 -144
-26 -122 -25 -374 -57 -457 -58 -25 0 -28 4 -28 31 0 40 39 106 70 118 14 6
67 33 119 62 94 51 121 53 33 1 -91 -53 -172 -107 -172 -114 0 -4 24 1 53 13
109 42 183 86 247 146 80 76 103 80 181 27z m422 16 c-6 -24 4 -26 29 -4 17
16 19 15 33 -19 19 -46 19 -88 1 -132 -20 -47 -37 -44 -59 10 -10 24 -22 44
-25 42 -4 -1 -19 7 -33 16 -35 23 -28 50 20 83 43 29 40 29 34 4z m-1375 -14
c27 -14 54 -31 61 -39 6 -9 57 -34 112 -57 89 -38 106 -42 157 -37 l57 5 -35
-15 c-53 -23 -174 -10 -212 22 -16 13 -58 38 -94 56 -66 31 -104 60 -104 79 0
14 5 13 58 -14z m-2368 -65 c0 -15 -24 -28 -85 -46 -71 -20 -86 -32 -110 -86
-15 -32 -23 -39 -39 -35 -48 12 -127 18 -150 12 -47 -12 -28 -31 46 -49 73
-17 111 -37 71 -37 -34 0 -156 30 -171 42 -8 7 -11 26 -9 52 4 39 6 42 78 79
125 64 164 75 272 76 53 1 97 -3 97 -8z m4050 -35 c0 -9 23 -15 83 -19 82 -6
177 -31 238 -62 44 -23 134 -116 158 -163 24 -47 41 -195 41 -353 0 -88 -3
-109 -14 -109 -10 0 -16 -14 -18 -42 l-3 -43 -42 2 c-29 1 -43 -2 -43 -11 0
-18 22 -36 44 -36 20 0 20 0 1 -19 -11 -10 -34 -22 -51 -26 -31 -6 -32 -5 -36
34 -2 28 0 41 9 41 30 0 21 26 -24 68 -27 26 -76 76 -108 112 -32 36 -61 64
-66 63 -5 -2 -16 12 -25 29 -14 27 -15 39 -5 79 9 35 9 52 0 72 -7 15 -15 27
-19 27 -4 0 -10 14 -12 30 l-5 30 65 0 c63 0 222 36 222 50 0 4 -13 13 -29 20
-25 10 -47 8 -144 -15 l-115 -27 -76 50 c-41 27 -98 55 -126 62 -38 9 -50 16
-50 31 0 10 -7 19 -15 19 -8 0 -15 -7 -15 -16 0 -8 -5 -12 -11 -9 -7 5 -3 16
12 31 17 19 21 31 16 63 -3 22 -2 42 1 45 3 3 41 6 84 6 59 0 78 -3 78 -14z
m-1599 -23 c13 -16 12 -17 -3 -4 -10 7 -18 15 -18 17 0 8 8 3 21 -13z m-2251
-59 c0 -3 -5 -14 -10 -24 -9 -17 -7 -18 23 -13 26 4 45 -2 84 -26 28 -17 60
-31 71 -31 17 0 104 -29 196 -66 15 -6 17 -4 11 6 -6 10 -2 11 21 6 42 -11 49
-21 36 -51 -7 -14 -12 -37 -12 -50 0 -15 -10 -31 -25 -41 -14 -9 -25 -23 -25
-31 0 -17 -32 -10 -70 17 -32 22 -76 35 -175 51 -44 7 -108 23 -143 36 -77 28
-90 29 -66 2 40 -45 155 -92 302 -124 92 -20 107 -31 58 -41 -20 -3 -42 -12
-49 -18 -7 -7 -33 -27 -59 -44 -26 -18 -74 -58 -107 -88 l-60 -55 -35 16 c-35
17 -93 95 -164 223 -19 32 -63 89 -98 125 -35 37 -64 74 -64 84 0 10 11 36 23
58 17 29 29 40 47 41 14 0 36 5 50 12 38 19 240 41 240 26z m3410 -74 c-20
-13 -43 -13 -35 0 3 6 16 10 28 10 18 0 19 -2 7 -10z m-83 -26 c-3 -3 -12 -4
-19 -1 -8 3 -5 6 6 6 11 1 17 -2 13 -5z m433 -41 c108 -40 177 -123 171 -206
0 -10 -5 -16 -10 -13 -5 3 -12 -15 -16 -41 -12 -80 -37 -126 -101 -185 -143
-131 -353 -215 -589 -237 -49 -5 -95 -7 -102 -4 -17 7 -41 85 -49 161 -7 61
-7 62 -38 62 -25 0 -37 8 -58 39 l-28 39 23 6 c12 4 74 18 137 32 63 14 116
27 118 29 2 2 -16 7 -40 12 -34 7 -60 4 -121 -14 -44 -13 -89 -20 -102 -17
-12 3 -26 1 -29 -5 -13 -20 -36 -11 -47 16 -9 23 -7 30 12 44 18 13 21 23 16
52 l-6 36 54 16 c33 9 59 23 65 35 6 11 21 20 33 20 39 0 290 66 362 96 110
45 265 57 345 27z m-4272 -112 c3 -38 -2 -48 -41 -94 -24 -29 -52 -65 -62 -80
l-19 -29 -17 23 c-10 13 -20 37 -24 54 -3 16 -8 43 -12 58 -3 16 0 47 8 69 10
31 22 44 58 63 l46 23 30 -23 c24 -17 31 -31 33 -64z m3197 40 l40 -7 -54 -13
c-45 -11 -55 -11 -62 0 -19 31 -3 35 76 20z m-2954 -74 c16 -12 133 -199 145
-232 18 -47 -58 17 -109 92 -21 31 -67 133 -67 150 0 7 16 1 31 -10z m-66
-231 c14 -20 32 -50 40 -66 23 -44 73 -98 132 -141 78 -58 85 -120 10 -98 -16
5 -37 15 -46 22 -9 8 -43 28 -76 47 -64 34 -144 95 -159 119 -5 7 -23 30 -41
50 -41 45 -72 141 -52 156 8 5 21 25 31 43 9 17 21 32 26 32 6 0 10 6 10 13 0
8 10 18 22 24 21 9 24 5 50 -77 16 -48 39 -104 53 -124z m2307 123 c31 11 136
16 126 6 -3 -3 -42 -10 -87 -15 -83 -11 -126 -7 -116 11 4 5 14 5 26 -2 15 -7
29 -7 51 0z m-2492 -9 c0 -5 -5 -10 -11 -10 -5 0 -7 5 -4 10 3 6 8 10 11 10 2
0 4 -4 4 -10z m1623 0 c138 -13 177 -25 177 -53 0 -37 43 -74 94 -81 25 -4 46
-12 46 -18 0 -17 -40 -78 -59 -87 -11 -6 -50 -1 -116 15 -104 25 -268 56 -282
53 -4 -1 -33 9 -63 23 -30 13 -82 30 -115 37 -33 7 -73 18 -88 23 -29 11 -47
4 -31 -11 19 -19 255 -92 306 -96 29 -1 85 -15 123 -29 39 -15 106 -36 150
-47 44 -11 84 -24 88 -28 11 -11 -12 -59 -30 -63 -27 -5 -120 -242 -153 -385
-7 -29 -14 -53 -17 -53 -3 0 -13 10 -22 22 l-18 21 -54 -56 c-59 -61 -88 -70
-122 -39 -13 11 -37 17 -72 18 -99 1 -408 171 -625 343 -44 35 -80 70 -80 78
0 8 -15 20 -34 28 -30 13 -34 19 -39 65 -5 38 -2 58 9 76 9 13 14 29 12 36 -7
20 45 56 119 84 37 14 82 31 98 38 17 8 47 17 69 21 21 3 52 16 68 28 21 15
55 25 116 33 111 14 418 16 545 4z m1699 -7 c9 -10 20 -27 26 -39 l11 -21 -57
21 c-69 26 -84 35 -77 47 11 16 81 10 97 -8z m-3577 -150 c18 -37 18 -43 5
-43 -18 0 -40 59 -39 107 l1 48 9 -40 c5 -22 16 -54 24 -72z m3407 53 c11 -20
25 -20 62 -1 15 8 36 15 46 15 33 0 146 -57 161 -81 9 -13 34 -94 57 -179 45
-166 47 -205 22 -367 -10 -64 -14 -71 -65 -121 -39 -38 -75 -61 -129 -82 -41
-17 -79 -30 -86 -30 -6 0 -61 -24 -123 -53 -96 -46 -119 -53 -157 -50 -30 3
-51 -1 -65 -11 -19 -15 -19 -15 10 -16 30 -1 30 -1 5 -11 -13 -6 -107 -13
-208 -16 l-183 -6 3 186 c2 102 -1 189 -5 193 -22 22 -28 -30 -23 -193 5 -163
4 -173 -14 -183 -27 -14 -80 -12 -162 6 -101 23 -127 36 -185 93 -46 45 -52
48 -70 36 -18 -13 -21 -12 -32 11 -6 14 -11 42 -11 62 -1 20 -5 57 -11 82 -16
71 -37 373 -28 392 15 28 10 48 -11 48 -23 0 -26 18 -6 45 12 17 17 18 52 6
37 -12 44 -10 114 22 243 111 495 174 769 192 97 7 103 8 80 22 -22 13 -14 14
80 10 83 -3 105 -7 113 -21z m1359 -59 c14 -12 38 -39 53 -59 15 -21 33 -38
41 -38 8 0 22 -11 30 -24 14 -22 14 -29 -9 -97 -42 -129 -51 -144 -96 -164
-52 -24 -155 -24 -200 -1 -41 20 -64 21 -57 2 4 -10 1 -13 -7 -10 -21 8 -29
89 -15 144 10 38 19 52 44 66 18 9 65 59 106 111 40 51 76 93 79 93 3 0 17
-10 31 -23z m350 -246 c-6 -11 -21 -26 -32 -32 -18 -9 -17 -5 7 25 30 37 43
41 25 7z m-694 -61 c9 -10 23 -43 30 -71 15 -60 15 -61 -82 -109 -108 -53
-209 -60 -350 -24 -54 14 -60 14 -71 -1 -8 -10 -14 -12 -19 -6 -6 10 51 71 67
71 3 0 12 15 19 34 11 31 18 36 78 51 36 10 89 21 116 25 28 5 70 17 95 28 58
26 96 27 117 2z m-3412 -111 c64 -60 194 -148 280 -192 44 -22 75 -42 68 -44
-14 -5 -161 68 -223 110 -69 48 -130 103 -181 162 -37 44 -16 31 56 -36z
m3720 -69 c-3 -5 -11 -10 -16 -10 -6 0 -7 5 -4 10 3 6 11 10 16 10 6 0 7 -4 4
-10z m-753 -101 c-18 -16 -38 -29 -45 -29 -6 1 6 16 27 35 22 19 42 32 45 29
3 -3 -9 -19 -27 -35z m-3254 -70 c-3 -49 -12 -90 -25 -115 -18 -35 -35 -105
-47 -189 -3 -16 -2 26 0 95 3 69 12 161 20 205 14 69 19 81 36 81 19 0 20 -5
16 -77z m3786 36 c-4 -8 -8 -15 -10 -15 -2 0 -4 7 -4 15 0 8 4 15 10 15 5 0 7
-7 4 -15z m-531 -142 c-7 -2 -19 -2 -25 0 -7 3 -2 5 12 5 14 0 19 -2 13 -5z
m-63 -83 c-14 -4 -34 -8 -45 -8 l-20 -1 20 9 c11 5 31 8 45 8 l25 0 -25 -8z
m-1945 -40 c10 -11 13 -20 7 -20 -18 0 -62 22 -62 32 0 16 37 8 55 -12z m1792
14 c-3 -3 -12 -4 -19 -1 -8 3 -5 6 6 6 11 1 17 -2 13 -5z m-1866 -143 c24 -11
62 -26 83 -35 41 -17 46 -33 5 -17 -17 6 -28 5 -37 -5 -18 -20 -30 -17 -43 9
-6 12 -23 32 -37 44 -33 28 -27 29 29 4z m2756 -295 c13 -38 28 -104 33 -147
5 -43 13 -87 18 -96 8 -15 4 -115 -11 -290 -3 -30 -65 -38 -190 -24 -96 11
-123 19 -226 70 -61 30 -184 144 -196 181 -4 14 -11 27 -14 30 -9 6 -51 128
-54 153 -2 14 17 24 88 48 95 32 269 111 290 132 7 7 31 21 54 31 22 11 41 23
41 28 0 4 14 8 30 8 17 0 37 8 47 19 16 19 17 18 41 -27 14 -25 36 -77 49
-116z m-804 -63 c-7 -2 -21 -2 -30 0 -10 3 -4 5 12 5 17 0 24 -2 18 -5z
m-3237 -65 c-9 -12 -16 -32 -17 -43 0 -12 -3 -15 -6 -7 -3 8 3 32 13 54 10 22
20 36 22 30 2 -7 -4 -22 -12 -34z m3247 -33 c1 -5 -62 -52 -139 -105 -170
-115 -203 -139 -186 -140 38 -1 208 102 301 182 50 44 49 26 -2 -27 -86 -89
-237 -171 -380 -204 -113 -27 -137 -26 -200 3 -29 13 -74 33 -100 45 -26 12
-51 29 -54 38 -13 33 58 77 211 132 127 46 159 53 256 61 62 4 128 6 148 3 21
-2 55 2 77 10 44 16 65 17 68 2z m232 -321 c39 -15 75 -32 80 -38 11 -12 51
-40 101 -71 51 -31 133 -107 156 -144 12 -18 41 -52 65 -74 24 -22 46 -50 49
-63 9 -37 -64 -275 -106 -344 -15 -25 -29 -49 -31 -55 -10 -26 -93 -145 -102
-145 -6 0 -33 -11 -61 -24 -77 -36 -183 -76 -199 -76 -8 0 -32 -7 -53 -16 -32
-14 -60 -15 -152 -10 -63 3 -146 13 -185 20 -40 8 -94 17 -122 21 -63 9 -124
40 -188 97 -45 39 -53 185 -19 343 33 154 45 247 31 256 -8 5 -8 12 0 27 6 11
11 29 11 39 0 25 41 55 164 117 142 73 171 93 318 220 14 13 18 13 29 0 17
-21 50 -17 56 7 5 19 9 17 47 -20 26 -25 67 -50 111 -67z m-2555 37 c0 -45
-60 -184 -98 -229 -20 -23 -53 -62 -72 -86 -30 -38 -43 -46 -95 -57 -33 -7
-104 -14 -157 -16 l-96 -4 -26 38 -27 38 3 -35 c4 -48 -25 -54 -41 -8 -14 39
-5 140 15 165 12 16 13 15 14 -11 0 -16 7 -38 16 -48 16 -17 18 -15 40 32 47
101 189 210 275 210 28 0 57 8 79 22 19 12 55 27 80 33 38 10 48 10 67 -4 12
-9 23 -27 23 -40z m1412 28 c9 -10 25 -19 36 -19 24 0 73 -71 131 -186 54
-110 87 -211 108 -333 l18 -103 -28 -22 c-15 -12 -27 -31 -27 -43 0 -29 -28
-104 -46 -124 -9 -10 -29 -21 -45 -24 -16 -4 -29 -11 -29 -16 0 -5 -8 -9 -17
-9 -10 0 -31 -7 -47 -15 -15 -8 -39 -15 -52 -15 -35 0 -266 -49 -287 -60 -22
-13 -49 -6 -177 45 -240 98 -245 101 -365 229 -192 205 -264 314 -285 429 -13
72 -11 84 14 70 11 -6 49 -1 109 13 50 12 173 36 272 53 99 18 206 36 238 42
68 12 80 7 72 -32 -9 -40 21 -139 41 -139 12 0 14 5 9 18 -4 9 -10 51 -12 94
l-5 76 56 7 c31 4 60 5 63 2 3 -4 0 -43 -6 -87 -12 -78 -19 -765 -9 -775 3 -3
15 16 27 43 22 46 22 51 18 439 -3 352 -2 393 12 397 9 3 37 8 63 11 40 6 48
11 57 37 10 27 13 29 43 23 18 -4 40 -15 50 -26z m-1855 -95 c-3 -3 -12 -4
-19 -1 -8 3 -5 6 6 6 11 1 17 -2 13 -5z m3578 -95 c-3 -8 -34 -30 -69 -49 -72
-38 -77 -38 -149 23 l-39 32 84 -3 c46 -1 103 1 128 6 52 10 52 10 45 -9z
m-1426 -25 c17 -4 31 -13 31 -20 0 -12 -55 -54 -70 -54 -7 0 -40 59 -40 71 0
10 34 12 79 3z m-1474 -101 c3 -21 10 -54 14 -73 5 -19 13 -53 18 -75 l9 -41
-53 21 -53 20 0 72 c0 62 3 75 22 93 30 28 36 26 43 -17z m1500 -28 c-8 -22
-15 -49 -16 -60 -1 -14 -3 -11 -9 10 -4 17 -11 38 -15 47 -5 12 1 21 22 31 15
9 29 14 30 13 1 -1 -4 -20 -12 -41z m1370 -14 c3 -6 8 -28 11 -50 5 -37 4 -41
-15 -41 -12 0 -26 11 -35 28 -8 16 -22 34 -31 42 -13 10 -13 15 -3 21 18 12
65 11 73 0z m-3164 -72 c-10 -23 -10 -23 -10 7 -1 17 2 34 7 38 11 12 14 -18
3 -45z m-428 -47 c18 -16 18 -17 -5 -23 -34 -8 -87 26 -88 58 0 15 65 -10 93
-35z m277 19 c0 -6 -4 -13 -10 -16 -5 -3 -10 1 -10 9 0 9 5 16 10 16 6 0 10
-4 10 -9z m3360 -77 c17 -15 44 -52 61 -83 16 -31 39 -71 50 -90 11 -18 24
-52 29 -75 5 -22 19 -72 33 -111 26 -78 53 -303 45 -378 -3 -26 1 -72 8 -104
16 -66 18 -133 5 -133 -10 0 -31 -77 -31 -114 0 -14 -5 -26 -10 -26 -6 0 -47
-34 -92 -76 -45 -42 -97 -83 -117 -91 -45 -19 -177 -21 -256 -4 -51 11 -68 21
-112 65 l-52 52 6 101 c7 123 -3 162 -23 88 -7 -27 -14 -63 -15 -80 -1 -16 -5
4 -9 45 -4 41 -14 101 -22 132 l-15 57 46 50 c65 71 65 72 95 126 27 47 68
107 94 134 23 24 115 213 143 294 19 54 28 102 31 162 l3 85 37 0 c25 0 46 -8
68 -26z m-1427 -141 c-8 -51 -22 -77 -23 -41 0 23 18 78 26 78 1 0 0 -17 -3
-37z m-2788 -40 c-10 -40 -17 -20 -9 23 5 24 9 32 12 21 2 -10 1 -30 -3 -44z
m1773 -171 c26 -19 78 -49 115 -67 37 -18 63 -36 58 -39 -5 -4 -47 13 -93 37
-46 24 -105 52 -133 61 -45 15 -56 25 -116 109 -36 50 -70 99 -74 107 -5 8 37
-27 93 -79 56 -52 123 -110 150 -129z m-700 -19 c16 -12 47 -26 68 -32 32 -8
47 -21 76 -66 l37 -56 13 27 c7 15 18 26 23 26 21 -2 26 -100 21 -431 -5 -339
-5 -344 -29 -395 -15 -30 -27 -79 -31 -121 -10 -101 -34 -118 -43 -30 -3 25
-9 48 -13 50 -4 3 -37 -11 -74 -30 -96 -50 -122 -52 -182 -18 -27 16 -63 35
-81 42 -17 7 -60 46 -96 89 -71 85 -169 223 -163 229 2 2 30 -24 62 -57 109
-114 249 -197 383 -225 85 -18 81 -17 81 -6 0 11 -80 62 -170 107 -207 106
-420 335 -537 579 -18 38 -33 82 -33 97 0 17 -5 28 -14 28 -13 0 -26 20 -26
41 0 17 45 9 63 -11 21 -25 47 -26 47 -2 0 29 60 93 109 114 25 12 84 33 131
49 78 26 96 28 217 26 117 -2 135 -4 161 -24z m1706 -95 c23 -39 44 -61 75
-78 13 -6 43 -27 67 -45 23 -18 49 -35 56 -38 9 -3 6 -13 -13 -33 -14 -16 -33
-41 -41 -55 -9 -14 -36 -36 -60 -48 -24 -11 -67 -35 -97 -51 -43 -24 -66 -30
-113 -30 -57 0 -60 1 -113 53 -34 33 -55 62 -55 75 0 14 -9 26 -24 32 -15 5
-26 20 -30 39 -3 17 -9 44 -12 59 -6 28 -3 30 58 50 34 12 99 24 143 28 165
14 199 60 38 52 -103 -6 -117 4 -20 13 122 12 121 12 141 -23z m1007 -75 c-6
-10 -27 -38 -48 -62 l-38 -43 -35 21 c-19 11 -30 21 -23 21 6 0 42 18 80 39
80 47 76 46 64 24z m-3443 -50 c6 -21 16 -67 23 -103 19 -104 55 -212 94 -284
41 -77 32 -87 -18 -18 -56 77 -129 240 -138 307 -7 56 6 135 22 135 3 0 11
-17 17 -37z m2022 -5 l0 -33 -20 25 c-25 32 -25 40 0 40 16 0 20 -7 20 -32z
m-168 6 c-24 -17 -39 -14 -27 5 3 6 16 11 28 11 l21 0 -22 -16z m-62 -43 c0
-26 16 -36 28 -16 8 15 13 15 54 1 113 -39 111 -37 185 -168 122 -218 158
-340 173 -594 9 -141 8 -190 -5 -280 -8 -60 -18 -117 -21 -128 -9 -29 12 -10
24 21 6 16 13 50 17 76 8 60 16 54 32 -25 11 -55 10 -64 -7 -98 -19 -38 -49
-54 -150 -85 -14 -4 -46 -18 -72 -31 -32 -16 -64 -24 -101 -24 -51 0 -53 1
-65 34 -16 44 -48 84 -85 107 -50 30 -125 108 -156 163 -16 28 -56 130 -90
226 -33 96 -73 208 -90 249 -17 41 -31 87 -31 103 0 15 -9 61 -20 101 -12 40
-23 121 -27 183 l-6 111 29 20 c27 19 125 57 169 65 11 2 64 5 118 7 91 2 97
1 97 -18z m893 -36 c-3 -9 -8 -14 -10 -11 -3 3 -2 9 2 15 9 16 15 13 8 -4z
m127 -38 c36 -10 94 -24 130 -31 144 -28 209 -49 231 -72 12 -13 28 -24 35
-24 15 0 39 -39 36 -57 -1 -6 7 -14 18 -18 19 -6 20 -14 20 -203 -1 -182 -2
-203 -25 -272 -14 -41 -25 -81 -25 -88 0 -18 -51 -132 -59 -132 -3 -1 -31 -3
-63 -6 -32 -3 -65 -1 -76 5 -15 8 -40 5 -103 -11 -71 -17 -101 -20 -191 -15
-150 9 -256 44 -315 106 l-43 45 0 80 c-1 45 -7 115 -14 156 -14 74 -13 76 13
131 15 31 44 79 64 107 20 27 37 55 37 61 0 6 15 17 33 24 33 14 54 34 72 71
6 11 24 30 41 41 32 21 94 102 94 124 0 7 5 9 13 4 6 -4 41 -16 77 -26z m1234
-492 c-9 -13 -37 -36 -62 -50 l-47 -25 55 50 c61 54 79 63 54 25z m-1748 -224
c-4 -25 -9 -81 -12 -123 -3 -43 -11 -78 -16 -78 -6 0 -7 7 -4 16 3 9 7 86 7
173 1 154 1 155 16 107 9 -31 12 -67 9 -95z m-2881 33 c-9 -49 -21 -93 -27
-99 -7 -7 -9 -4 -5 10 3 11 8 36 12 55 12 69 27 131 31 127 2 -2 -3 -44 -11
-93z m4133 -25 c43 -10 57 -10 60 -1 5 15 115 16 141 2 10 -5 40 -12 67 -14
27 -3 79 -8 117 -12 43 -4 67 -11 67 -19 0 -7 7 -18 15 -25 8 -7 15 -24 15
-37 0 -18 4 -24 15 -19 21 8 49 -23 86 -95 30 -60 80 -207 94 -278 4 -18 15
-52 25 -75 36 -81 58 -200 69 -371 16 -248 17 -433 2 -482 -12 -43 -12 -43
-58 -43 -26 0 -96 11 -157 25 -61 14 -133 30 -161 36 -27 7 -76 22 -107 34
-103 42 -268 166 -268 202 0 7 -4 13 -10 13 -5 0 -10 -11 -10 -24 0 -14 5 -28
10 -31 6 -3 10 -11 10 -16 0 -22 -74 50 -114 111 -62 93 -94 169 -88 208 5 36
-23 295 -39 357 -6 22 -22 71 -36 108 -21 58 -23 72 -13 91 6 13 10 32 9 42
-3 18 36 138 52 159 16 22 47 135 42 153 -4 18 0 20 52 16 31 -1 82 -9 113
-15z m-2377 -134 c21 -51 42 -70 51 -44 2 6 23 -18 48 -52 94 -137 196 -235
297 -287 24 -12 70 -42 104 -66 34 -25 66 -47 70 -48 20 -7 -35 -227 -110
-438 -55 -155 -66 -174 -117 -199 -62 -30 -242 -71 -313 -71 -33 0 -40 6 -86
68 -130 178 -248 371 -365 599 -54 105 -61 126 -53 150 13 38 47 38 51 1 3
-28 28 -56 39 -44 4 3 -1 30 -10 60 -22 70 -23 196 -1 239 30 58 55 77 102 77
64 0 161 37 212 80 25 21 48 36 52 34 3 -2 16 -29 29 -59z m1960 -225 c5 0 4
-9 -3 -20 -16 -26 -7 -33 27 -20 15 6 29 9 30 8 1 -2 17 -55 35 -118 30 -106
32 -129 37 -305 5 -212 1 -236 -58 -290 -37 -34 -37 -44 2 90 45 155 52 198
40 243 -6 23 -11 51 -11 63 0 42 -32 158 -49 178 -40 46 -42 10 -4 -80 23 -58
26 -77 26 -189 0 -125 -11 -199 -38 -255 -8 -16 -32 -68 -54 -115 -42 -91 -59
-113 -136 -176 -122 -99 -278 -187 -425 -240 -66 -24 -84 -26 -155 -20 -44 3
-96 10 -115 15 -19 5 -46 12 -60 15 -14 3 -46 23 -70 46 -25 22 -48 40 -52 40
-9 0 -49 70 -60 105 -5 17 -13 55 -18 85 -4 30 -15 75 -25 99 -9 25 -19 73
-22 108 -3 35 -10 63 -14 63 -12 0 -11 -89 1 -164 12 -79 18 -206 8 -200 -15
10 -80 143 -107 220 -38 110 -40 208 -7 325 26 94 60 169 77 169 8 0 8 5 -1
14 -10 13 -4 15 39 14 27 -1 56 3 63 9 16 14 243 103 261 103 7 0 17 4 23 8 5
5 36 15 69 22 33 7 84 23 113 36 29 13 94 33 144 45 51 11 98 25 105 31 7 6
41 12 76 14 34 2 109 10 167 17 58 8 111 13 118 11 8 -2 18 -4 23 -4z m-3123
-181 c15 -6 52 -34 82 -63 46 -45 63 -55 101 -59 26 -4 63 -14 82 -23 33 -16
36 -21 36 -58 -1 -157 64 -379 156 -532 19 -31 19 -32 -4 -60 -12 -16 -32 -45
-44 -64 -27 -42 -54 -47 -128 -26 -29 9 -72 16 -95 16 -24 0 -54 4 -67 9 -19
8 -27 6 -31 -4 -4 -11 -11 -12 -30 -6 -39 15 -169 154 -235 251 -22 32 -67 80
-76 80 -5 0 13 -53 41 -122 21 -55 21 -57 3 -48 -10 6 -27 23 -36 38 -9 15
-28 46 -43 68 -48 75 -110 302 -110 402 0 49 26 110 52 118 13 4 18 15 18 40
0 19 1 34 3 35 1 0 43 7 92 14 93 14 187 11 233 -6z m666 -51 c19 -17 36 -57
66 -153 22 -71 57 -164 78 -204 44 -89 48 -100 34 -86 -36 35 -177 335 -174
372 1 12 -5 26 -12 30 -14 8 -34 63 -23 63 3 0 17 -10 31 -22z m-44 -108 c0
-34 80 -218 138 -317 68 -116 164 -235 226 -278 16 -12 27 -27 24 -35 -3 -9
-35 17 -94 76 -149 147 -271 312 -323 434 -37 88 -37 90 -10 124 22 28 39 26
39 -4z m-1081 -66 c-28 -30 -39 -30 -39 -1 0 31 5 35 36 29 l25 -5 -22 -23z
m-274 -91 c-24 -91 -30 -147 -21 -185 16 -62 -20 -178 -55 -178 -14 0 -11 107
6 203 9 51 27 111 46 147 16 33 32 60 34 60 1 0 -3 -21 -10 -47z m1174 -89
c16 -62 7 -67 -13 -8 -19 56 -19 54 -7 54 5 0 14 -21 20 -46z m36 -101 c8 -20
13 -38 11 -41 -4 -3 -36 63 -36 74 0 14 12 -2 25 -33z m265 -109 c29 -37 49
-72 46 -80 -9 -24 -25 -15 -41 23 -9 21 -22 44 -30 53 -14 15 -38 70 -31 70 2
0 27 -30 56 -66z m929 -40 c-32 -34 -35 -22 -8 33 23 46 24 47 27 19 2 -19 -4
-36 -19 -52z m161 -92 c0 -3 -7 3 -15 14 -8 10 -14 28 -14 39 0 14 4 10 14
-14 8 -18 15 -36 15 -39z m1575 12 c17 -2 52 -22 79 -44 26 -22 53 -40 60 -40
6 0 49 -19 95 -42 68 -35 99 -59 162 -127 78 -82 100 -92 58 -24 -25 39 -19
52 13 31 17 -11 23 -25 24 -54 0 -21 7 -53 14 -71 13 -30 12 -33 -27 -85 -119
-154 -260 -266 -431 -342 -61 -27 -70 -28 -192 -24 l-127 3 -69 70 c-51 51
-89 80 -145 107 -72 35 -99 63 -99 102 0 7 -11 35 -25 61 -18 36 -21 51 -12
57 83 51 303 264 382 369 l50 67 80 -5 c44 -2 94 -6 110 -9z m-2510 -62 c-7
-7 -45 29 -45 41 0 6 11 0 25 -13 14 -13 23 -26 20 -28z m980 -40 c-2 -2 -13
1 -24 8 -15 7 -21 20 -21 43 l1 32 24 -40 c13 -21 23 -41 20 -43z m-34 -142
c41 -54 77 -99 82 -100 4 0 31 -16 59 -37 29 -20 80 -49 114 -64 34 -16 71
-41 83 -56 11 -15 25 -32 31 -38 5 -5 21 -21 35 -34 13 -14 27 -38 31 -54 5
-26 -1 -36 -48 -86 -30 -31 -76 -82 -102 -113 -47 -56 -249 -216 -394 -312
-77 -51 -193 -105 -226 -106 -27 0 -202 180 -262 270 -69 101 -72 109 -96 203
-11 45 -31 103 -44 128 l-23 46 27 52 c50 94 152 221 207 257 18 12 28 11 70
-5 28 -10 64 -21 80 -25 l30 -7 -38 32 -39 32 33 26 c46 36 127 63 168 57 19
-3 48 1 65 9 26 12 47 18 77 24 3 0 39 -44 80 -99z m2645 -1 c134 -57 260
-119 304 -148 69 -47 99 -65 155 -91 65 -30 103 -74 91 -105 -2 -7 4 -30 14
-50 29 -57 45 -245 31 -359 -21 -166 -38 -220 -82 -264 -39 -38 -43 -39 -125
-45 -46 -3 -122 -3 -169 0 l-85 6 0 61 c0 44 -10 90 -36 166 -20 58 -37 119
-38 135 0 17 -5 36 -10 44 -5 8 -4 16 2 20 6 3 14 19 17 34 4 16 23 44 41 64
19 20 32 39 29 42 -4 3 -9 1 -13 -5 -4 -6 -25 -17 -47 -24 -22 -7 -50 -18 -61
-26 -19 -11 -27 -10 -60 8 -59 30 -61 35 -32 65 30 32 60 97 94 202 19 60 22
82 14 115 -13 58 -66 159 -87 168 -10 3 -13 7 -7 7 6 1 33 -8 60 -20z m-4454
-26 c23 -20 23 -33 1 -33 -22 1 -53 23 -53 39 0 16 31 13 52 -6z m4178 -48
c-13 -14 -29 -25 -36 -25 -7 0 -14 -5 -16 -11 -3 -8 -18 -9 -46 -4 -25 4 -41
12 -39 18 4 12 20 17 107 35 25 5 47 10 49 11 3 0 -6 -10 -19 -24z m239 -43
c-5 -2 -10 -13 -10 -25 -1 -12 -5 -4 -9 18 -5 22 -6 49 -3 60 5 17 8 14 18
-15 7 -19 8 -36 4 -38z m-429 27 c0 -6 -4 -7 -10 -4 -5 3 -10 11 -10 16 0 6 5
7 10 4 6 -3 10 -11 10 -16z m-3257 -29 c16 -12 27 -34 31 -57 3 -21 10 -65 15
-98 28 -168 26 -246 -9 -265 -15 -8 -26 -4 -53 19 -81 71 -106 145 -110 321
-2 65 -2 65 33 82 45 23 62 23 93 -2z m1935 -159 c7 -30 11 -55 10 -56 -2 -1
-22 6 -45 16 -33 14 -43 24 -43 41 0 23 50 72 61 60 3 -4 11 -31 17 -61z
m1517 44 c17 -14 42 -36 57 -49 l28 -24 -33 -25 c-17 -14 -41 -33 -52 -43 -52
-48 -98 -70 -238 -115 -83 -27 -156 -49 -161 -49 -5 0 4 12 20 28 41 37 134
150 146 178 6 13 23 27 37 33 14 5 55 27 91 50 36 22 67 40 70 41 3 0 19 -11
35 -25z m-1691 -77 c-29 -35 -58 -58 -73 -58 -21 0 -51 30 -51 51 0 18 2 18
119 27 24 2 24 2 5 -20z m-2519 -148 c7 0 15 10 19 23 5 18 8 20 16 7 5 -8 10
-25 10 -36 0 -12 6 -27 14 -33 12 -10 15 -1 21 56 7 78 11 93 23 93 16 0 157
-134 162 -154 4 -12 14 -21 24 -21 29 0 89 -120 81 -162 -4 -22 1 -48 14 -78
l20 -45 -37 0 c-44 0 -82 23 -82 50 0 24 -25 41 -112 75 l-67 27 -12 54 c-7
30 -19 60 -27 67 -13 10 -14 7 -10 -28 3 -22 9 -48 13 -57 11 -27 -20 -23 -39
4 -9 13 -16 43 -16 69 0 34 -4 49 -16 53 -23 9 -25 5 -14 -35 16 -54 13 -65
-10 -44 -22 20 -45 89 -56 167 -10 73 5 77 39 9 16 -34 35 -61 42 -61z m2689
46 c78 -21 104 -37 171 -106 33 -34 76 -70 96 -80 35 -18 37 -23 44 -82 7 -61
7 -63 -23 -88 -17 -14 -33 -37 -37 -52 -8 -30 -48 -78 -65 -78 -17 0 -11 14
20 43 60 57 31 56 -77 -2 -113 -61 -135 -71 -248 -119 -73 -31 -240 -91 -310
-112 -22 -6 -49 -15 -60 -20 -68 -31 -253 -56 -215 -29 12 8 11 9 -5 5 -72
-18 -219 -36 -298 -36 -59 0 -97 -4 -105 -12 -7 -7 -12 -8 -12 -2 0 5 16 20
36 34 19 14 72 54 117 88 45 35 92 68 105 73 12 5 25 17 29 26 9 26 88 101
179 169 117 87 190 160 245 242 27 40 49 77 49 83 0 6 8 8 18 5 10 -3 60 5
112 18 71 18 99 30 115 49 18 23 22 24 42 11 12 -8 47 -20 77 -28z m-1606 -80
c12 -36 22 -79 22 -97 0 -31 51 -136 92 -189 10 -14 44 -51 75 -82 31 -32 55
-60 52 -62 -10 -10 -58 7 -78 27 -26 27 -91 115 -91 124 0 3 -12 21 -26 40
-39 52 -103 303 -76 303 4 0 17 -29 30 -64z m-2347 4 c24 -11 54 -20 67 -20
12 0 42 -10 64 -21 28 -14 43 -18 46 -10 2 6 11 11 20 11 8 0 23 7 32 15 13
12 23 13 46 5 34 -12 48 -39 64 -125 6 -33 17 -82 25 -110 39 -146 52 -224 39
-229 -8 -3 -14 -20 -14 -38 0 -26 -10 -41 -51 -80 -44 -41 -50 -52 -45 -74 4
-16 1 -35 -8 -49 -14 -21 -18 -22 -53 -12 -48 14 -151 115 -186 182 -14 28
-26 46 -27 41 0 -4 16 -39 36 -77 35 -67 85 -126 152 -181 33 -27 42 -48 19
-48 -7 0 -42 17 -78 38 -109 66 -225 249 -234 371 -2 25 -8 75 -14 111 -18
111 -14 227 10 277 11 24 27 43 34 43 7 0 32 -9 56 -20z m5209 -50 c-8 -5 -19
-10 -25 -10 -5 0 -3 5 5 10 8 5 20 10 25 10 6 0 3 -5 -5 -10z m-44 -19 c-3 -4
-27 -14 -53 -21 -27 -7 -52 -16 -58 -20 -15 -11 -92 -23 -80 -13 6 5 35 16 65
25 30 10 69 21 85 27 39 12 47 13 41 2z m-5362 -30 c-9 -46 14 -264 42 -389
29 -129 89 -311 139 -419 38 -83 32 -95 -14 -26 -69 104 -114 228 -157 430
-30 143 -44 358 -25 406 14 36 22 35 15 -2z m5760 -20 c4 -5 4 -16 1 -23 -7
-18 -80 -58 -104 -58 -10 0 -28 -11 -41 -25 -29 -31 -25 -31 51 0 54 22 172
44 225 42 22 -1 30 -33 14 -53 -7 -7 -3 -19 10 -34 11 -13 20 -36 20 -52 0
-31 14 -63 37 -86 14 -14 18 -93 6 -106 -4 -4 -6 -22 -5 -39 7 -82 -12 -120
-160 -309 -243 -312 -280 -358 -288 -358 -5 0 -17 -3 -27 -7 -10 -4 5 19 33
53 93 107 166 217 221 331 29 61 53 118 53 125 0 8 4 18 9 24 29 31 59 404 32
404 -11 0 -13 -41 -13 -190 1 -49 -17 -136 -34 -168 -8 -15 -14 -32 -14 -39 0
-40 -242 -446 -293 -492 -65 -59 -84 -75 -102 -86 -33 -22 -260 -95 -312 -101
-47 -5 -47 -5 -22 10 15 9 29 22 32 30 5 13 1 13 -31 1 -20 -7 -62 -26 -93
-43 -55 -28 -61 -29 -259 -36 l-203 -7 -116 37 c-64 20 -121 41 -128 46 -24
19 -83 131 -103 194 -11 36 -20 88 -20 116 0 27 -5 58 -10 68 -7 13 -7 21 0
25 5 3 10 22 10 40 0 29 5 37 33 51 17 9 39 22 47 29 8 7 56 34 105 59 102 53
126 72 80 62 -51 -12 -145 -48 -145 -56 0 -7 -22 -13 -92 -27 -29 -5 -22 32
10 53 15 10 63 36 107 59 102 54 156 90 234 160 70 62 143 100 211 109 25 4
74 13 110 21 36 7 99 19 140 26 111 17 351 76 363 88 6 6 17 11 25 11 20 0
132 53 132 62 0 4 -6 8 -12 8 -7 0 12 13 42 29 48 25 67 29 142 30 48 1 89 -3
92 -8z m-1237 -63 c-3 -8 -6 -5 -6 6 -1 11 2 17 5 13 3 -3 4 -12 1 -19z
m-3679 -34 c188 -101 263 -147 253 -157 -5 -5 -7 -15 -4 -23 10 -27 -49 -41
-204 -48 l-153 -6 -6 28 c-3 15 -10 40 -15 56 -20 63 -9 125 29 169 20 23 23
22 100 -19z m-759 -134 c0 -9 -4 -8 -9 5 -5 11 -9 27 -9 35 0 9 4 8 9 -5 5
-11 9 -27 9 -35z m21 -55 c0 -5 -5 -3 -10 5 -5 8 -10 20 -10 25 0 6 5 3 10 -5
5 -8 10 -19 10 -25z m1093 -97 c11 -6 39 -4 75 3 78 17 116 14 156 -10 18 -11
64 -25 102 -30 39 -6 106 -19 150 -29 43 -11 162 -32 262 -48 147 -23 186 -32
193 -47 13 -24 3 -38 -24 -33 -12 3 -53 10 -92 17 -38 7 -76 17 -83 23 -8 5
-33 11 -55 11 -23 1 -62 11 -87 23 -51 23 -130 46 -136 39 -3 -3 32 -23 78
-46 92 -46 93 -47 196 -113 41 -27 81 -48 91 -48 9 0 21 -4 26 -8 6 -5 32 -17
59 -27 l48 -17 -7 -87 c-9 -106 -24 -134 -145 -266 -50 -54 -90 -104 -90 -111
0 -19 -276 -295 -322 -322 -23 -14 -39 -19 -43 -12 -4 6 -59 10 -140 10 l-134
0 -38 37 c-39 40 -98 83 -112 83 -13 0 -110 108 -127 143 -9 16 -25 40 -36 51
-23 25 -61 96 -55 102 7 7 63 -64 89 -112 31 -58 154 -138 278 -181 25 -8 74
-26 108 -40 68 -27 92 -22 63 14 -19 23 -129 83 -152 83 -27 0 -177 81 -244
133 -38 29 -93 80 -120 113 -46 54 -51 66 -63 139 -7 44 -18 98 -23 120 -12
51 -14 182 -4 258 7 57 1 69 -23 45 -7 -7 -12 -8 -12 -2 0 15 45 45 132 87
142 69 206 83 261 55z m697 -18 c0 -11 -14 -11 -50 0 -22 7 -21 8 13 9 20 1
37 -3 37 -9z m4540 -80 c-36 -11 -52 -11 -45 0 3 6 21 10 38 9 31 -1 31 -1 7
-9z m-413 -62 c-3 -8 -6 -5 -6 6 -1 11 2 17 5 13 3 -3 4 -12 1 -19z m-3608
-11 c-2 -1 -12 -9 -21 -16 -15 -12 -18 -11 -18 3 0 10 8 16 22 16 12 0 19 -1
17 -3z m4068 -41 c2 -2 8 -28 12 -58 5 -29 14 -74 22 -100 11 -41 11 -54 -6
-108 -19 -61 -37 -90 -56 -90 -6 0 -7 5 -4 10 3 6 1 10 -4 10 -6 0 -17 -15
-25 -34 -15 -37 -64 -73 -144 -107 -71 -31 -248 -69 -348 -76 -79 -5 -93 -3
-112 13 l-21 18 58 60 c31 34 83 95 113 136 57 77 99 119 178 182 66 51 190
130 230 145 31 12 95 11 107 -1z m-2892 -6 c-3 -5 -12 -10 -18 -10 -7 0 -6 4
3 10 19 12 23 12 15 0z m-2810 -27 c-14 -59 -59 -163 -67 -155 -13 13 51 182
68 182 4 0 3 -12 -1 -27z m2034 -119 c24 -8 88 -21 142 -29 101 -14 159 -33
109 -36 -63 -3 -168 3 -200 13 -64 19 -121 48 -115 58 8 13 12 13 64 -6z
m1058 -3 c11 -18 9 -21 -25 -32 -20 -7 -57 -23 -82 -37 -86 -47 -255 -132
-263 -132 -23 0 -97 -42 -97 -55 0 -21 24 -19 78 9 26 13 61 26 77 30 17 4 44
14 60 21 17 7 56 21 88 30 31 10 57 22 57 26 0 5 9 9 21 9 11 0 30 5 42 12 12
6 45 13 73 14 62 3 73 -7 98 -84 15 -48 15 -57 1 -105 -9 -29 -18 -87 -21
-130 -4 -82 -19 -129 -51 -162 -11 -12 -22 -25 -24 -30 -7 -17 -51 -86 -106
-169 -29 -44 -51 -81 -48 -84 2 -3 25 17 49 44 25 27 45 44 46 38 0 -13 -106
-118 -175 -172 -98 -77 -284 -149 -359 -139 -22 3 -108 15 -191 26 -208 27
-291 58 -483 177 -121 74 -140 91 -178 161 -21 37 -47 82 -59 98 -12 17 -36
59 -55 94 -32 62 -33 69 -38 208 l-5 144 29 30 c34 36 126 87 118 65 -8 -21
72 -53 149 -59 91 -6 84 9 -21 48 -45 17 -80 34 -79 40 2 5 26 18 53 28 27 9
59 22 70 28 17 9 29 6 60 -14 22 -14 81 -40 132 -56 78 -26 108 -31 190 -31
105 0 240 13 339 32 51 9 67 9 87 -2 18 -9 29 -10 38 -3 7 6 31 13 53 16 74 9
175 30 175 37 0 4 24 12 53 19 28 6 59 16 67 21 23 15 44 12 57 -9z m2002 -13
c-7 -12 -48 -78 -92 -145 -57 -88 -86 -123 -104 -128 -14 -3 -26 -5 -28 -3 -1
2 37 53 86 113 49 61 92 117 95 125 13 27 46 71 51 66 2 -2 -1 -15 -8 -28z
m-5078 -125 c11 -51 19 -103 17 -115 -3 -20 -6 -18 -24 17 -42 80 -47 110 -32
183 9 49 14 59 16 37 1 -16 12 -71 23 -122z m-1005 -22 c-7 -11 -140 -35 -158
-28 -10 3 84 25 155 36 5 0 6 -3 3 -8z m6978 -120 c4 -5 -12 -7 -36 -4 -57 8
-61 13 -10 13 22 0 43 -4 46 -9z m-6336 -76 c-3 -3 -9 2 -12 12 -6 14 -5 15 5
6 7 -7 10 -15 7 -18z m387 -31 c15 -25 36 -55 46 -65 21 -21 25 -39 8 -39 -11
0 -23 11 -47 42 -13 17 -45 108 -37 108 1 0 15 -21 30 -46z m5435 17 c0 -5
-47 -34 -106 -65 -109 -58 -152 -67 -239 -47 -26 6 -20 9 50 25 92 21 255 73
270 87 12 12 25 12 25 0z m-4039 -131 c4 -14 22 -70 39 -125 l32 -100 -104
-100 c-97 -93 -185 -160 -285 -215 -39 -22 -46 -22 -85 -10 -24 7 -46 16 -49
19 -4 3 -9 33 -12 66 -6 58 -5 62 28 96 38 41 55 87 35 99 -23 14 38 108 128
198 94 93 112 101 206 99 54 -2 60 -4 67 -27z m-2258 -47 c-18 -2 -48 -2 -65
0 -18 2 -4 4 32 4 36 0 50 -2 33 -4z m5676 -53 c25 0 73 -49 68 -70 -1 -9 -11
-14 -22 -12 -41 7 -62 4 -117 -22 -36 -16 -74 -26 -105 -26 -26 0 -86 -9 -133
-21 -103 -25 -302 -29 -346 -7 -54 26 -39 35 108 58 79 12 149 27 156 32 9 8
11 7 6 -6 -9 -22 7 -20 47 7 40 27 109 51 199 68 36 7 74 18 85 26 17 11 20
11 27 -7 4 -11 16 -20 27 -20z m188 -6 c-3 -3 -12 -4 -19 -1 -8 3 -5 6 6 6 11
1 17 -2 13 -5z m-1223 -50 c25 -9 19 -22 -18 -39 -55 -26 -53 -43 2 -33 98 19
110 20 116 9 4 -6 22 -11 41 -11 22 0 44 -9 62 -25 15 -14 44 -39 63 -57 l35
-32 -31 -12 c-18 -7 -42 -27 -55 -45 -36 -49 -120 -130 -170 -165 -24 -18
-154 -87 -289 -154 l-245 -121 -49 15 c-26 9 -57 16 -67 16 -11 0 -27 8 -37
18 -22 22 -133 112 -160 131 -16 11 -19 18 -10 28 6 7 7 13 2 14 -5 1 2 4 16
8 19 5 37 31 80 117 65 128 111 198 179 272 41 45 56 55 97 61 58 10 415 14
438 5z m-2279 -134 c17 -37 17 -41 2 -58 -10 -10 -17 -26 -17 -34 0 -24 -87
-93 -185 -148 -28 -16 -40 -18 -51 -9 -11 9 3 27 69 93 45 46 98 108 117 139
19 31 38 56 41 57 3 0 14 -18 24 -40z m-855 -45 c0 -2 -9 -9 -19 -14 -14 -8
-22 -7 -31 4 -11 13 -8 15 19 15 17 0 31 -2 31 -5z m3730 -5 c0 -5 -4 -10 -9
-10 -5 0 -17 -3 -25 -6 -12 -5 -15 -2 -10 10 7 17 44 22 44 6z m-2299 -241
c11 -5 39 -14 62 -19 l42 -8 -51 -1 c-38 -1 -58 4 -75 19 -26 21 -11 27 22 9z
m-306 -29 c3 -5 1 -10 -4 -10 -6 0 -11 5 -11 10 0 6 2 10 4 10 3 0 8 -4 11
-10z m2493 -7 c-16 -2 -40 -2 -55 0 -16 2 -3 4 27 4 30 0 43 -2 28 -4z m-1880
-19 c23 -3 42 -10 42 -16 0 -15 -126 -4 -170 15 l-35 15 60 -5 c33 -2 79 -6
103 -9z m635 -189 c48 -44 87 -85 87 -91 0 -18 -203 -112 -270 -125 -38 -7
-95 -10 -150 -6 -89 7 -89 7 -119 -23 -33 -34 -46 -37 -55 -14 -13 33 -6 72
16 86 30 20 18 52 -17 46 -17 -4 -25 -1 -25 8 0 8 -6 14 -14 14 -16 0 -26 -43
-26 -112 0 -50 0 -50 -27 -43 -16 4 -41 7 -58 7 l-30 -2 24 21 c18 15 21 23
13 31 -18 18 -139 23 -168 8 -38 -21 -204 -7 -285 24 -76 28 -197 90 -219 112
-17 17 -4 29 84 74 73 37 121 47 142 29 9 -7 29 -12 45 -11 15 2 68 -4 116
-13 48 -9 137 -22 198 -29 97 -10 110 -14 113 -31 6 -34 19 -38 43 -16 13 11
35 21 49 21 30 0 50 16 50 41 0 15 57 45 67 36 1 -2 -11 -19 -27 -37 -17 -19
-30 -38 -30 -42 0 -9 64 34 85 57 27 28 68 43 150 55 50 7 97 16 105 20 18 10
25 5 133 -95z m572 -190 c54 -17 33 -18 -30 -1 -27 8 -41 14 -30 14 11 0 38
-5 60 -13z m-480 -145 l50 -18 -67 -1 c-81 -1 -103 5 -87 25 15 18 43 17 104
-6z m-1150 -50 c15 -7 10 -9 -23 -9 -26 -1 -41 3 -37 9 7 12 32 12 60 0z m189
-57 c4 -5 42 -13 84 -19 42 -6 61 -12 42 -12 -19 0 -56 3 -83 7 -26 4 -73 4
-104 -2 -40 -7 -81 -6 -147 4 l-91 14 130 5 c72 3 137 7 146 8 9 1 19 -1 23
-5z m234 -40 c-10 -2 -28 -2 -40 0 -13 2 -5 4 17 4 22 1 32 -1 23 -4z m157
-13 c7 -12 -34 -12 -90 -1 -38 8 -37 9 22 10 34 0 65 -3 68 -9z m272 -56 c-3
-3 -12 -4 -19 -1 -8 3 -5 6 6 6 11 1 17 -2 13 -5z m-52 -14 c-25 -11 -161 -11
-195 0 -16 5 20 8 95 8 76 0 113 -3 100 -8z"/>
<path d="M5401 21176 c-16 -18 -10 -108 7 -114 9 -3 12 14 12 62 0 36 -2 66
-4 66 -2 0 -9 -6 -15 -14z"/>
<path d="M5256 21138 c-16 -60 1 -157 25 -143 10 7 13 124 3 149 -9 23 -21 20
-28 -6z"/>
<path d="M5472 21103 c4 -81 28 -85 28 -4 0 48 -3 61 -15 61 -13 0 -15 -11
-13 -57z"/>
<path d="M3945 20456 c-9 -20 1 -329 13 -390 9 -49 32 -61 32 -17 0 17 5 31
10 31 6 0 10 -25 10 -55 0 -35 7 -68 19 -90 26 -49 32 -26 26 93 -3 53 -7 145
-8 204 -3 101 -9 130 -23 115 -12 -12 -24 -84 -24 -151 0 -38 -2 -67 -4 -65
-2 2 -9 65 -15 139 -14 160 -24 214 -36 186z"/>
<path d="M2350 20380 c0 -5 5 -10 10 -10 6 0 10 -7 10 -17 0 -9 3 -14 6 -10 8
8 -5 47 -17 47 -5 0 -9 -4 -9 -10z"/>
<path d="M2320 20350 c0 -5 5 -10 10 -10 6 0 10 5 10 10 0 6 -4 10 -10 10 -5
0 -10 -4 -10 -10z"/>
<path d="M2446 20338 c-8 -34 -12 -117 -6 -111 3 2 12 33 21 69 12 51 13 64 2
64 -7 0 -15 -10 -17 -22z"/>
<path d="M2430 20100 c0 -90 16 -124 39 -82 7 14 4 34 -14 78 l-25 59 0 -55z"/>
<path d="M4652 19379 c2 -6 8 -10 13 -10 5 0 11 4 13 10 2 6 -4 11 -13 11 -9
0 -15 -5 -13 -11z"/>
<path d="M2706 19593 c-6 -14 -5 -15 5 -6 7 7 10 15 7 18 -3 3 -9 -2 -12 -12z"/>
<path d="M2691 19142 c16 -87 53 -186 77 -209 28 -26 72 -31 72 -9 0 8 -4 17
-9 20 -5 3 -18 26 -30 51 -12 25 -27 45 -34 45 -15 0 -52 64 -62 107 -11 52
-23 47 -14 -5z"/>
<path d="M3102 19070 c0 -14 2 -19 5 -12 2 6 2 18 0 25 -3 6 -5 1 -5 -13z"/>
<path d="M4105 18078 c-11 -33 -24 -170 -19 -198 14 -70 31 -19 41 128 3 58 2
82 -6 82 -7 0 -14 -6 -16 -12z"/>
<path d="M4106 17828 c-19 -27 -20 -53 -4 -98 10 -31 12 -32 25 -15 15 21 18
121 4 130 -5 3 -17 -5 -25 -17z"/>
<path d="M4470 17670 c-8 -5 -12 -12 -9 -15 4 -3 12 1 19 10 14 17 11 19 -10
5z"/>
<path d="M2548 17484 c-6 -10 -2 -51 18 -174 7 -46 41 -123 76 -172 15 -21 28
-28 53 -28 47 0 64 8 80 40 16 32 14 35 -69 94 -67 47 -133 140 -143 201 -5
28 -12 45 -15 39z"/>
<path d="M2680 17425 c0 -18 76 -98 88 -94 7 2 -8 25 -38 54 -27 27 -50 45
-50 40z"/>
<path d="M3401 17651 c-15 -27 -25 -101 -14 -101 13 0 43 66 43 95 0 30 -15
33 -29 6z"/>
<path d="M3380 17407 c0 -16 12 -77 26 -137 21 -83 31 -111 45 -115 48 -16 54
47 10 89 -19 18 -34 47 -42 80 -7 28 -18 65 -25 81 l-13 30 -1 -28z"/>
<path d="M3789 17082 c31 -62 106 -122 188 -153 21 -7 8 10 -52 71 -72 72
-131 120 -149 120 -3 0 2 -17 13 -38z"/>
<path d="M3890 17089 c0 -16 112 -83 207 -124 69 -31 101 -39 150 -39 34 -1
65 -4 69 -8 4 -5 39 -8 78 -8 53 0 79 5 104 20 58 35 33 55 -49 40 -165 -31
-378 11 -516 101 -24 16 -43 24 -43 18z"/>
<path d="M5348 17262 c-1 -5 -57 -50 -123 -101 -118 -92 -208 -171 -201 -178
5 -6 160 93 241 153 62 45 115 104 115 128 0 9 -28 7 -32 -2z"/>
<path d="M5199 17007 c-18 -14 -32 -47 -20 -47 8 0 33 26 45 48 9 15 -4 15
-25 -1z"/>
<path d="M5125 16940 c-4 -6 -33 -28 -66 -49 -60 -39 -67 -62 -13 -38 45 19
81 46 99 73 13 20 13 24 1 24 -8 0 -18 -5 -21 -10z"/>
<path d="M4095 16190 c-7 -12 -21 -11 155 -10 80 1 161 5 180 10 23 5 -26 8
-147 9 -112 1 -184 -3 -188 -9z"/>
<path d="M3610 15526 c0 -23 55 -96 72 -96 13 0 -17 52 -46 79 -14 14 -26 21
-26 17z"/>
<path d="M3300 15507 c0 -8 107 -77 119 -77 24 0 -8 44 -40 55 -62 22 -79 26
-79 22z"/>
<path d="M1891 15997 c7 -15 16 -27 21 -27 14 0 9 16 -13 36 -21 19 -21 19 -8
-9z"/>
<path d="M2130 15781 c70 -57 208 -101 320 -101 57 1 63 2 47 14 -9 7 -36 17
-60 20 -23 4 -64 20 -92 35 -32 18 -72 30 -110 34 -33 4 -76 9 -95 12 l-35 7
25 -21z"/>
<path d="M2404 15761 c12 -18 134 -51 167 -44 51 10 13 24 -134 48 -26 4 -37
3 -33 -4z"/>
<path d="M4750 15870 c0 -5 5 -10 10 -10 6 0 10 5 10 10 0 6 -4 10 -10 10 -5
0 -10 -4 -10 -10z"/>
<path d="M3980 15135 c-8 -10 -14 -47 -14 -98 -1 -45 -7 -92 -14 -104 -9 -17
-9 -28 0 -50 l11 -28 9 40 c6 22 13 83 17 135 3 52 10 101 14 108 12 17 -8 15
-23 -3z"/>
<path d="M4025 14999 c-4 -5 -4 -21 -1 -33 3 -13 -1 -47 -10 -76 -15 -51 -13
-100 5 -100 14 0 19 23 27 124 5 66 3 96 -4 96 -6 0 -14 -5 -17 -11z"/>
<path d="M2966 13261 c-3 -5 4 -21 17 -37 l22 -28 6 29 c3 17 4 33 2 38 -6 10
-41 9 -47 -2z"/>
<path d="M3151 13208 c-1 -15 4 -30 9 -33 12 -7 12 12 0 40 -8 18 -9 17 -9 -7z"/>
<path d="M4612 12928 c3 -7 13 -15 24 -17 16 -3 17 -1 5 13 -16 19 -34 21 -29
4z"/>
<path d="M4041 12465 c-1 -12 -7 -27 -13 -33 -10 -10 -13 -60 -13 -182 0 -149
5 -194 19 -179 9 8 22 375 15 394 -8 20 -8 20 -8 0z"/>
<path d="M3969 12343 c-6 -16 -13 -109 -16 -208 -4 -144 -3 -178 7 -168 14 13
41 403 27 403 -4 0 -12 -12 -18 -27z"/>
<path d="M5189 11482 c-8 -29 -8 -48 1 -82 11 -38 14 -42 21 -25 11 29 11 145
-1 145 -5 0 -14 -17 -21 -38z"/>
<path d="M5396 11470 c-18 -60 -15 -110 8 -110 14 0 20 89 6 110 -8 13 -9 13
-14 0z"/>
<path d="M5316 11444 c-13 -34 -6 -81 16 -100 21 -19 21 -19 15 6 -4 14 -7 44
-7 68 0 42 -13 56 -24 26z"/>
<path d="M4186 11465 c-3 -8 -1 -15 4 -15 6 0 10 7 10 15 0 8 -2 15 -4 15 -2
0 -6 -7 -10 -15z"/>
<path d="M2576 11314 c-9 -23 -7 -77 3 -92 9 -15 21 29 21 79 0 31 -14 39 -24
13z"/>
<path d="M3970 11380 c0 -5 4 -10 9 -10 6 0 13 5 16 10 3 6 -1 10 -9 10 -9 0
-16 -4 -16 -10z"/>
<path d="M3814 11218 c27 -96 36 -137 36 -171 0 -25 4 -36 11 -31 23 14 -18
224 -43 224 -6 0 -8 -10 -4 -22z"/>
<path d="M3905 11175 c12 -117 27 -195 36 -189 21 13 -2 206 -28 234 -13 13
-14 7 -8 -45z"/>
<path d="M3830 10758 c0 -9 5 -20 11 -23 17 -11 20 0 4 21 -13 17 -14 17 -15
2z"/>
<path d="M3754 9979 c-9 -16 2 -22 21 -11 15 8 16 10 1 15 -8 3 -18 2 -22 -4z"/>
<path d="M4550 9440 c0 -5 5 -10 10 -10 6 0 10 5 10 10 0 6 -4 10 -10 10 -5 0
-10 -4 -10 -10z"/>
<path d="M2735 9450 c10 -11 20 -20 22 -20 2 0 -1 9 -7 20 -6 11 -16 20 -22
20 -6 0 -3 -9 7 -20z"/>
<path d="M4075 9397 c-4 -10 -5 -21 -1 -24 10 -10 18 4 13 24 -4 17 -4 17 -12
0z"/>
<path d="M3460 9323 c0 -40 60 -142 115 -197 32 -31 59 -55 62 -53 5 6 -103
206 -124 230 -10 10 -26 23 -35 28 -14 8 -18 6 -18 -8z"/>
<path d="M4027 9282 c-14 -21 3 -280 19 -286 28 -11 28 7 -5 249 -4 31 -9 45
-14 37z"/>
<path d="M6250 8820 c0 -5 7 -10 16 -10 8 0 12 5 9 10 -3 6 -10 10 -16 10 -5
0 -9 -4 -9 -10z"/>
<path d="M5475 8805 c-19 -15 -19 -15 10 -13 17 2 29 7 28 13 -3 16 -18 16
-38 0z"/>
<path d="M5437 8771 c-3 -14 0 -21 9 -21 16 0 18 9 5 28 -6 10 -10 9 -14 -7z"/>
<path d="M5530 8509 c0 -5 5 -7 10 -4 6 3 10 8 10 11 0 2 -4 4 -10 4 -5 0 -10
-5 -10 -11z"/>
<path d="M2687 8744 c-10 -11 3 -24 24 -24 23 0 25 15 3 24 -19 7 -19 7 -27 0z"/>
<path d="M4775 8661 c-106 -30 -200 -64 -225 -82 -23 -16 64 -3 213 32 119 29
127 32 127 55 0 29 8 29 -115 -5z"/>
<path d="M3936 8402 c-6 -10 33 -77 40 -69 6 5 -22 77 -30 77 -3 0 -7 -4 -10
-8z"/>
<path d="M3935 8238 c3 -13 10 -40 15 -61 4 -21 10 -41 14 -44 12 -12 6 58 -8
92 -17 39 -32 48 -21 13z"/>
<path d="M4060 8104 c0 -8 5 -12 10 -9 6 3 10 10 10 16 0 5 -4 9 -10 9 -5 0
-10 -7 -10 -16z"/>
<path d="M4004 8075 c3 -22 8 -62 12 -88 4 -30 10 -45 16 -39 11 11 -9 143
-24 157 -7 7 -8 -2 -4 -30z"/>
<path d="M5857 6863 c-14 -13 -6 -23 19 -23 22 0 25 2 14 15 -14 16 -23 19
-33 8z"/>
<path d="M3967 6813 c-11 -10 -8 -266 3 -283 27 -43 42 73 27 220 -3 25 -5 51
-6 58 -1 13 -14 16 -24 5z"/>
<path d="M3975 5426 c-17 -39 -20 -86 -6 -86 10 0 41 72 41 95 0 30 -21 25
-35 -9z"/>
<path d="M3963 5215 c-15 -28 -28 -215 -15 -215 5 0 12 -10 16 -22 4 -19 8
-20 18 -10 16 16 16 203 1 242 -10 23 -10 23 -20 5z"/>
<path d="M1900 4100 c0 -43 44 -145 80 -186 36 -42 37 -38 6 24 -13 26 -27 65
-30 87 -14 75 -56 132 -56 75z"/>
<path d="M3824 3387 c-3 -9 -3 -40 0 -69 4 -29 10 -101 14 -160 7 -107 15
-135 32 -108 7 11 10 5 10 -21 0 -34 14 -59 33 -59 5 0 7 10 4 23 -3 12 -7 68
-8 125 -2 97 -12 130 -29 102 -7 -11 -10 3 -29 122 -8 53 -18 69 -27 45z"/>
<path d="M3954 3105 c-16 -39 -17 -115 -4 -190 6 -27 11 -83 13 -123 4 -75 8
-88 26 -77 16 9 13 91 -4 158 -17 66 -20 219 -5 248 8 13 7 19 0 19 -6 0 -18
-16 -26 -35z"/>
<path d="M7093 3107 c-23 -12 -42 -26 -43 -31 0 -5 24 -6 53 -4 37 3 60 11 74
25 12 12 19 24 16 27 -12 12 -59 4 -100 -17z"/>
<path d="M854 2646 c17 -55 68 -187 72 -184 5 6 -71 228 -78 228 -4 0 -1 -20
6 -44z"/>
<path d="M1096 2282 c-3 -2 6 -14 20 -25 18 -13 29 -16 36 -9 6 6 8 15 4 20
-6 11 -53 22 -60 14z"/>
<path d="M6133 2648 c-59 -21 -121 -45 -138 -52 -16 -8 -41 -17 -55 -21 -28
-8 -144 -51 -175 -65 -20 -9 -77 -30 -142 -52 -45 -16 -42 -32 5 -23 56 10
321 88 357 105 11 5 45 16 75 24 82 22 132 42 144 57 6 8 23 22 39 32 29 19
35 34 13 34 -8 0 -63 -18 -123 -39z"/>
<path d="M3577 1831 c4 -18 57 -51 80 -51 6 0 23 -6 39 -14 16 -7 46 -16 66
-19 30 -5 40 -2 48 13 17 33 2 50 -45 50 -23 0 -58 6 -76 14 -19 8 -53 17 -76
21 -38 6 -41 5 -36 -14z"/>
<path d="M3928 1551 c-25 -34 -28 -48 -28 -114 0 -96 17 -168 47 -204 l24 -28
-8 105 c-8 113 -8 159 2 233 4 26 3 47 -1 47 -5 0 -21 -18 -36 -39z"/>
<path d="M5280 22620 c0 -5 9 -10 20 -10 11 0 20 5 20 10 0 6 -9 10 -20 10
-11 0 -20 -4 -20 -10z"/>
<path d="M5435 22540 c3 -5 11 -10 16 -10 6 0 7 5 4 10 -3 6 -11 10 -16 10 -6
0 -7 -4 -4 -10z"/>
<path d="M3985 22390 c-8 -13 -1 -24 14 -19 6 3 7 10 2 18 -6 10 -10 10 -16 1z"/>
<path d="M3887 22290 c-14 -11 -34 -20 -44 -20 -26 0 -135 -54 -133 -65 1 -5
-3 -11 -9 -13 -6 -2 -11 1 -11 7 0 21 -31 11 -40 -14 -10 -27 -20 -31 -36 -15
-14 14 -98 -29 -163 -85 -29 -25 -59 -45 -67 -45 -9 0 -14 -11 -14 -31 l0 -31
31 26 c17 14 41 26 54 26 14 0 41 10 62 21 161 91 329 164 339 147 3 -5 15 0
25 11 11 12 26 21 33 21 7 0 23 12 37 26 24 25 24 26 5 40 -26 19 -39 18 -69
-6z"/>
<path d="M4043 22291 c-27 -23 -20 -31 24 -31 20 0 48 -10 66 -23 18 -13 59
-31 92 -42 33 -10 88 -33 123 -52 72 -38 72 -38 72 -19 0 29 -114 96 -274 162
-70 29 -75 29 -103 5z"/>
<path d="M3980 22036 c0 -19 -4 -38 -10 -41 -13 -8 -13 -71 1 -97 13 -25 12
-219 -2 -307 -11 -68 -6 -111 12 -111 6 0 10 28 10 73 0 39 1 170 2 290 1 121
-1 221 -5 223 -5 3 -8 -11 -8 -30z"/>
<path d="M2245 21665 c-18 -36 -27 -70 -26 -98 3 -102 7 -142 16 -137 6 3 9
23 7 45 -6 84 -3 112 17 174 12 35 19 66 17 68 -2 2 -16 -21 -31 -52z"/>
<path d="M2186 21624 c-4 -9 -4 -19 -1 -22 2 -3 7 3 11 12 4 9 4 19 1 22 -2 3
-7 -3 -11 -12z"/>
<path d="M3906 21534 c-4 -10 -9 -51 -12 -93 -6 -97 13 -63 22 40 7 67 3 86
-10 53z"/>
<path d="M3811 21407 c-7 -32 -11 -61 -8 -63 7 -8 29 82 25 102 -3 11 -10 -7
-17 -39z"/>
<path d="M2160 19860 c0 -5 5 -10 10 -10 6 0 10 5 10 10 0 6 -4 10 -10 10 -5
0 -10 -4 -10 -10z"/>
<path d="M2150 17595 c0 -8 4 -15 10 -15 5 0 7 7 4 15 -4 8 -8 15 -10 15 -2 0
-4 -7 -4 -15z"/>
<path d="M53 1743 c26 -2 67 -2 90 0 23 2 2 3 -48 3 -50 0 -68 -1 -42 -3z"/>
<path d="M3468 163 c6 -2 18 -2 25 0 6 3 1 5 -13 5 -14 0 -19 -2 -12 -5z"/>
</g>
</svg>
